SplineFontDB: 3.2
FontName: Trinity.Medium.Italic
FullName: Trinity.Medium.Italic
FamilyName: Trinity
Weight: Medium
Copyright: (c) RISC OS Developments Ltd, released under Apache License 2.0
Version: 1
ItalicAngle: 0
UnderlinePosition: 0
UnderlineWidth: 0
Ascent: 400
Descent: 100
InvalidEm: 0
LayerCount: 2
Layer: 0 0 "Back" 1
Layer: 1 0 "Fore" 0
OS2Version: 0
OS2_WeightWidthSlopeOnly: 0
OS2_UseTypoMetrics: 0
CreationTime: 1622737881
ModificationTime: 1622737882
OS2TypoAscent: 0
OS2TypoAOffset: 1
OS2TypoDescent: 0
OS2TypoDOffset: 1
OS2TypoLinegap: 0
OS2WinAscent: 0
OS2WinAOffset: 1
OS2WinDescent: 0
OS2WinDOffset: 1
HheadAscent: 0
HheadAOffset: 1
HheadDescent: 0
HheadDOffset: 1
OS2Vendor: 'PfEd'
Lookup: 258 0 0 "'kern' Horizontal Kerning in Latin lookup 0" { "'kern' Horizontal Kerning in Latin lookup 0 subtable"  } ['kern' ('latn' <'dflt' > ) ]
DEI: 91125
Encoding: Custom
UnicodeInterp: none
NameList: AGL For New Fonts
DisplaySize: -24
AntiAlias: 1
FitToEm: 0
BeginChars: 480 406

StartChar: exclam
Encoding: 33 33 32
Width: 166
VWidth: 0
Flags: HMW
LayerCount: 2
Fore
SplineSet
30 -1 m 0
 20 9 20 25 30 35 c 0
 40 45 56 45 66 35 c 0
 75 25 75 9 65 -1 c 0
 56 -11 39 -11 30 -1 c 0
114 319 m 0
 127 335 148 335 148 308 c 0
 148 278 126 232 65 84 c 0
 58 84 l 0
 87 236 99 301 114 319 c 0
EndSplineSet
EndChar

StartChar: quoteleft
Encoding: 34 8216 33
Width: 166
VWidth: 0
Flags: HMW
LayerCount: 2
Fore
SplineSet
81 237 m 0
 63 257 85 320 134 338 c 0
 143 340 146 334 141 330 c 0
 132 324 119 320 114 310 c 0
 100 284 114 283 123 271 c 0
 131 260 129 248 122 239 c 0
 111 226 92 225 81 237 c 0
EndSplineSet
EndChar

StartChar: quoteright
Encoding: 35 8217 34
Width: 166
VWidth: 0
Flags: HMW
LayerCount: 2
Fore
SplineSet
44 229 m 0
 35 227 32 233 37 237 c 0
 46 243 59 247 64 257 c 0
 78 283 64 284 55 296 c 0
 47 307 49 319 56 328 c 0
 67 341 86 342 97 330 c 0
 115 310 93 247 44 229 c 0
EndSplineSet
EndChar

StartChar: quotedblleft
Encoding: 36 8220 35
Width: 278
VWidth: 0
Flags: HMW
LayerCount: 2
Fore
SplineSet
130 239 m 0
 119 226 100 225 89 237 c 0
 71 257 93 320 142 338 c 0
 151 340 154 334 149 330 c 0
 140 324 127 320 122 310 c 0
 108 284 122 283 131 271 c 0
 139 260 137 248 130 239 c 0
193 237 m 0
 175 257 197 320 246 338 c 0
 255 340 258 334 253 330 c 0
 244 324 231 320 226 310 c 0
 212 284 226 283 235 271 c 0
 243 260 241 248 234 239 c 0
 223 226 204 225 193 237 c 0
EndSplineSet
EndChar

StartChar: quotedblright
Encoding: 37 8221 36
Width: 278
VWidth: 0
Flags: HMW
LayerCount: 2
Fore
SplineSet
56 328 m 0
 67 341 86 342 97 330 c 0
 115 310 93 247 44 229 c 0
 35 227 32 233 37 237 c 0
 46 243 59 247 64 257 c 0
 78 283 64 284 55 296 c 0
 47 307 49 319 56 328 c 0
160 328 m 0
 171 341 190 342 201 330 c 0
 219 310 197 247 148 229 c 0
 139 227 136 233 141 237 c 0
 150 243 163 247 168 257 c 0
 182 283 168 284 159 296 c 0
 151 307 153 319 160 328 c 0
EndSplineSet
EndChar

StartChar: quotedblbase
Encoding: 38 8222 37
Width: 278
VWidth: 0
Flags: HMW
LayerCount: 2
Fore
SplineSet
61 -34 m 0
 75 -8 61 -7 52 5 c 0
 44 16 46 27 53 36 c 0
 64 49 83 51 94 39 c 0
 112 19 90 -44 41 -62 c 0
 32 -64 29 -58 34 -54 c 0
 43 -48 56 -44 61 -34 c 0
165 -34 m 0
 179 -8 165 -7 156 5 c 0
 148 16 150 28 157 37 c 0
 168 50 187 51 198 39 c 0
 216 19 194 -44 145 -62 c 0
 136 -64 133 -58 138 -54 c 0
 147 -48 160 -44 165 -34 c 0
EndSplineSet
EndChar

StartChar: asciitilde
Encoding: 39 126 38
Width: 270
VWidth: 0
Flags: HMW
LayerCount: 2
Fore
SplineSet
7 108 m 0
 52 185 86 170 143 146 c 0
 195 123 210 119 244 171 c 0
 261 151 l 0
 231 90 194 84 135 113 c 0
 83 140 60 145 25 87 c 0
 7 108 l 0
EndSplineSet
EndChar

StartChar: parenleft
Encoding: 40 40 39
Width: 166
VWidth: 0
Flags: HMW
LayerCount: 2
Fore
SplineSet
144 327 m 0
 151 335 160 329 154 321 c 0
 124 278 93 229 74 163 c 0
 59 109 57 65 56 28 c 0
 55 -24 66 -60 74 -82 c 0
 79 -94 69 -96 66 -88 c 0
 47 -43 35 -11 28 24 c 0
 15 91 25 138 37 169 c 0
 55 214 89 265 144 327 c 0
EndSplineSet
EndChar

StartChar: parenright
Encoding: 41 41 40
Width: 166
VWidth: 0
Flags: HMW
LayerCount: 2
Fore
SplineSet
128 69 m 0
 110 24 76 -27 21 -89 c 0
 14 -97 5 -91 11 -83 c 0
 41 -40 72 9 91 75 c 0
 106 129 108 173 109 210 c 0
 110 262 99 298 91 320 c 0
 86 332 96 334 99 326 c 0
 118 281 130 249 137 214 c 0
 150 147 140 100 128 69 c 0
EndSplineSet
EndChar

StartChar: asterisk
Encoding: 42 42 41
Width: 250
VWidth: 0
Flags: HMW
LayerCount: 2
Fore
SplineSet
105 236 m 0
 65 260 41 250 33 267 c 0
 26 280 34 294 49 294 c 0
 68 295 70 269 110 245 c 0
 115 242 119 244 119 250 c 0
 119 297 98 312 108 328 c 0
 116 341 132 341 140 328 c 0
 150 312 129 297 129 250 c 0
 129 244 133 242 138 245 c 0
 178 269 180 295 199 294 c 0
 214 294 222 280 215 267 c 0
 207 250 183 260 143 236 c 0
 138 234 138 229 143 227 c 0
 183 203 207 213 215 196 c 0
 222 183 214 169 199 169 c 0
 180 168 178 194 138 218 c 0
 133 221 129 219 129 213 c 0
 129 166 150 151 140 135 c 0
 132 122 116 122 108 135 c 0
 98 151 119 166 119 213 c 0
 119 219 115 221 110 218 c 0
 70 194 68 168 49 169 c 0
 34 169 26 183 33 196 c 0
 41 213 65 203 105 227 c 0
 110 229 110 234 105 236 c 0
EndSplineSet
EndChar

StartChar: sterling
Encoding: 43 163 42
Width: 250
VWidth: 0
Flags: HMW
LayerCount: 2
Fore
SplineSet
13 13 m 0
 23 0 51 1 65 34 c 0
 54 48 30 51 15 40 c 0
 8 34 6 23 13 13 c 0
89 182 m 0
 95 231 118 285 150 314 c 0
 185 344 224 345 240 324 c 0
 250 311 252 296 245 286 c 0
 235 273 222 271 211 284 c 0
 205 291 214 306 205 314 c 0
 199 321 186 319 176 310 c 0
 157 292 141 248 130 182 c 0
 190 182 l 0
 185 160 l 0
 125 160 l 0
 119 129 107 78 89 49 c 0
 130 25 181 28 201 42 c 0
 210 50 216 43 212 37 c 0
 190 0 151 -37 75 25 c 0
 51 -17 10 -16 0 7 c 0
 -7 23 -2 43 10 54 c 0
 27 69 52 67 73 56 c 0
 78 85 83 131 85 160 c 0
 28 160 l 0
 33 182 l 0
 89 182 l 0
EndSplineSet
EndChar

StartChar: comma
Encoding: 44 44 43
Width: 125
VWidth: 0
Flags: HMW
LayerCount: 2
Fore
SplineSet
50 37 m 0
 61 50 80 51 91 39 c 0
 109 19 87 -44 38 -62 c 0
 29 -64 26 -58 31 -54 c 0
 40 -48 53 -44 58 -34 c 0
 72 -8 58 -7 49 5 c 0
 41 16 43 28 50 37 c 0
EndSplineSet
EndChar

StartChar: hyphen
Encoding: 45 45 44
Width: 166
VWidth: 0
Flags: HMW
LayerCount: 2
Fore
SplineSet
28 127 m 0
 138 127 l 0
 138 96 l 0
 28 96 l 0
 28 127 l 0
EndSplineSet
EndChar

StartChar: period
Encoding: 46 46 45
Width: 125
VWidth: 0
Flags: HMW
LayerCount: 2
Fore
SplineSet
80 -1 m 0
 71 -11 54 -11 45 -1 c 0
 35 9 35 25 45 35 c 0
 55 45 71 45 81 35 c 0
 90 25 90 9 80 -1 c 0
EndSplineSet
EndChar

StartChar: zero
Encoding: 48 48 47
Width: 250
VWidth: 0
Flags: HMW
LayerCount: 2
Fore
SplineSet
99 284 m 0
 43 195 36 78 51 33 c 0
 63 -2 111 -9 146 46 c 0
 202 135 209 252 194 297 c 0
 182 332 134 339 99 284 c 0
74 296 m 0
 128 356 194 344 215 311 c 0
 251 253 240 110 171 34 c 0
 117 -26 51 -14 30 19 c 0
 -6 77 5 220 74 296 c 0
EndSplineSet
EndChar

StartChar: one
Encoding: 49 49 48
Width: 250
VWidth: 0
Flags: HMW
LayerCount: 2
Fore
SplineSet
137 269 m 0
 148 308 145 324 99 314 c 0
 99 323 l 0
 193 342 l 0
 195 334 l 0
 119 60 l 0
 112 33 104 11 140 11 c 0
 149 11 l 0
 149 0 l 0
 16 0 l 0
 16 11 l 0
 32 11 l 0
 69 11 72 38 79 60 c 0
 137 269 l 0
EndSplineSet
EndChar

StartChar: two
Encoding: 50 50 49
Width: 250
VWidth: 0
Flags: HMW
LayerCount: 2
Fore
SplineSet
90 294 m 0
 69 282 59 269 47 254 c 0
 40 246 33 252 37 260 c 0
 52 292 70 313 98 330 c 0
 117 340 160 345 187 322 c 0
 226 288 233 224 157 151 c 0
 44 42 l 0
 157 42 l 0
 167 42 179 49 186 72 c 0
 197 72 l 0
 173 0 l 0
 -4 0 l 0
 -4 12 l 0
 85 101 l 0
 164 180 201 248 149 289 c 0
 134 300 102 301 90 294 c 0
EndSplineSet
EndChar

StartChar: three
Encoding: 51 51 50
Width: 250
VWidth: 0
Flags: HMW
LayerCount: 2
Fore
SplineSet
209 316 m 0
 239 282 219 218 147 196 c 0
 195 175 216 94 151 28 c 0
 112 -13 24 -18 4 6 c 0
 -18 31 7 55 36 41 c 0
 54 34 78 -16 136 40 c 0
 155 58 168 135 124 162 c 0
 107 173 85 177 66 179 c 0
 55 179 55 192 66 192 c 0
 93 192 132 199 155 218 c 0
 186 244 188 288 173 302 c 0
 153 322 107 324 83 286 c 0
 77 277 69 282 75 292 c 0
 109 349 180 349 209 316 c 0
EndSplineSet
EndChar

StartChar: four
Encoding: 52 52 51
Width: 250
VWidth: 0
Flags: HMW
LayerCount: 2
Fore
SplineSet
19 141 m 0
 202 338 l 0
 228 338 l 0
 167 120 l 0
 209 120 l 0
 200 88 l 0
 158 88 l 0
 134 0 l 0
 94 0 l 0
 118 88 l 0
 -4 88 l 0
 -2 108 l 0
 0 122 10 131 19 141 c 0
173 282 m 0
 21 120 l 0
 127 120 l 0
 173 282 l 0
EndSplineSet
EndChar

StartChar: five
Encoding: 53 53 52
Width: 250
VWidth: 0
Flags: HMW
LayerCount: 2
Fore
SplineSet
85 245 m 0
 107 243 148 235 171 206 c 0
 212 155 196 62 134 22 c 0
 64 -24 9 -8 -2 10 c 0
 -15 29 6 54 27 38 c 0
 44 25 70 -2 125 35 c 0
 159 57 170 107 153 144 c 0
 139 174 100 191 52 211 c 0
 104 330 l 0
 232 330 l 0
 219 288 l 0
 104 288 l 0
 85 245 l 0
EndSplineSet
EndChar

StartChar: six
Encoding: 54 54 53
Width: 250
VWidth: 0
Flags: HMW
LayerCount: 2
Fore
SplineSet
240 338 m 0
 248 340 249 330 239 328 c 0
 172 313 114 258 86 201 c 0
 130 227 173 220 199 194 c 0
 233 159 225 85 183 32 c 0
 137 -25 47 -20 22 37 c 0
 -10 111 24 202 91 266 c 0
 137 309 183 328 240 338 c 0
173 173 m 0
 163 194 122 212 77 181 c 0
 54 148 40 75 46 48 c 0
 59 -10 127 3 155 48 c 0
 179 87 188 139 173 173 c 0
EndSplineSet
EndChar

StartChar: seven
Encoding: 55 55 54
Width: 250
VWidth: 0
Flags: HMW
LayerCount: 2
Fore
SplineSet
39 253 m 0
 31 257 l 0
 71 330 l 0
 256 330 l 0
 256 312 l 0
 62 -8 l 0
 28 -8 l 0
 213 288 l 0
 95 288 l 0
 66 288 60 281 39 253 c 0
EndSplineSet
EndChar

StartChar: eight
Encoding: 56 56 55
Width: 250
VWidth: 0
Flags: HMW
LayerCount: 2
Fore
SplineSet
110 302 m 0
 91 270 100 239 122 216 c 0
 143 195 l 0
 160 199 181 207 195 226 c 0
 211 249 212 279 197 302 c 0
 169 342 123 325 110 302 c 0
24 129 m 0
 43 150 75 168 102 177 c 0
 50 226 53 285 87 315 c 0
 124 348 194 346 223 310 c 0
 243 285 245 235 214 212 c 0
 200 201 174 189 152 185 c 0
 185 155 l 0
 216 128 226 73 192 32 c 0
 154 -13 72 -26 28 24 c 0
 1 55 -1 102 24 129 c 0
51 119 m 0
 39 97 39 62 48 43 c 0
 73 -13 139 -3 169 43 c 0
 184 67 177 108 155 129 c 0
 113 167 l 0
 93 158 64 144 51 119 c 0
EndSplineSet
EndChar

StartChar: nine
Encoding: 57 57 56
Width: 250
VWidth: 0
Flags: HMW
LayerCount: 2
Fore
SplineSet
5 1 m 0
 54 18 99 38 134 75 c 0
 152 94 166 114 176 134 c 0
 139 105 80 99 48 136 c 0
 12 179 19 251 73 306 c 0
 111 345 181 352 214 311 c 0
 249 268 247 134 160 56 c 0
 130 29 65 0 5 -8 c 0
 5 1 l 0
191 302 m 0
 171 337 125 334 96 291 c 0
 70 253 63 187 76 159 c 0
 92 124 149 129 182 155 c 0
 196 188 212 267 191 302 c 0
EndSplineSet
EndChar

StartChar: colon
Encoding: 58 58 57
Width: 166
VWidth: 0
Flags: HMW
LayerCount: 2
Fore
SplineSet
136 216 m 0
 145 206 145 190 135 180 c 0
 126 170 109 170 100 180 c 0
 90 190 90 206 100 216 c 0
 110 226 126 226 136 216 c 0
86 35 m 0
 95 25 95 9 85 -1 c 0
 76 -11 59 -11 50 -1 c 0
 40 9 40 25 50 35 c 0
 60 45 76 45 86 35 c 0
EndSplineSet
EndChar

StartChar: semicolon
Encoding: 59 59 58
Width: 166
VWidth: 0
Flags: HMW
LayerCount: 2
Fore
SplineSet
139 216 m 0
 148 206 148 190 138 180 c 0
 129 170 112 170 103 180 c 0
 93 190 93 206 103 216 c 0
 113 226 129 226 139 216 c 0
53 37 m 0
 64 50 83 51 94 39 c 0
 112 19 90 -44 41 -62 c 0
 32 -64 29 -58 34 -54 c 0
 43 -48 56 -44 61 -34 c 0
 75 -8 61 -7 52 5 c 0
 44 16 46 28 53 37 c 0
EndSplineSet
EndChar

StartChar: quotesingle
Encoding: 60 39 59
Width: 107
VWidth: 0
Flags: HMW
LayerCount: 2
Fore
SplineSet
98 278 m 0
 65 223 l 0
 48 223 l 0
 71 289 l 0
 82 318 87 328 94 335 c 0
 102 340 116 340 122 330 c 0
 127 321 113 302 98 278 c 0
EndSplineSet
EndChar

StartChar: equal
Encoding: 61 61 60
Width: 337
VWidth: 0
Flags: HMW
LayerCount: 2
Fore
SplineSet
295 63 m 0
 43 63 l 0
 43 95 l 0
 295 95 l 0
 295 63 l 0
295 192 m 0
 295 160 l 0
 43 160 l 0
 43 192 l 0
 295 192 l 0
EndSplineSet
EndChar

StartChar: quotedbl
Encoding: 62 34 61
Width: 210
VWidth: 0
Flags: HMW
LayerCount: 2
Fore
SplineSet
68 288 m 0
 75 321 77 328 84 335 c 0
 92 340 106 340 112 330 c 0
 117 321 113 312 98 281 c 0
 71 223 l 0
 54 223 l 0
 68 288 l 0
155 288 m 0
 162 321 164 328 171 335 c 0
 179 340 193 340 199 330 c 0
 204 321 200 312 185 281 c 0
 158 223 l 0
 141 223 l 0
 155 288 l 0
EndSplineSet
EndChar

StartChar: question
Encoding: 63 63 62
Width: 250
VWidth: 0
Flags: HMW
LayerCount: 2
Fore
SplineSet
96 35 m 0
 105 25 105 9 95 -1 c 0
 86 -11 69 -11 60 -1 c 0
 50 9 50 25 60 35 c 0
 70 45 86 45 96 35 c 0
117 252 m 0
 111 245 98 241 89 253 c 0
 74 273 82 299 109 318 c 0
 131 334 182 337 205 310 c 0
 222 290 225 255 212 227 c 0
 201 206 178 187 157 173 c 0
 108 139 103 116 94 85 c 0
 86 85 l 0
 103 150 106 157 166 214 c 0
 186 234 195 274 183 296 c 0
 168 324 122 323 110 291 c 0
 125 277 125 261 117 252 c 0
EndSplineSet
EndChar

StartChar: acute
Encoding: 64 180 63
Width: 166
VWidth: 0
Flags: HMW
LayerCount: 2
Fore
SplineSet
180 307 m 0
 97 251 l 0
 77 251 l 0
 153 331 l 0
 172 351 203 323 180 307 c 0
EndSplineSet
EndChar

StartChar: A
Encoding: 65 65 64
Width: 305
VWidth: 0
Flags: HMW
LayerCount: 2
Fore
SplineSet
18 43 m 0
 190 338 l 0
 202 338 l 0
 247 39 l 0
 249 21 257 12 282 11 c 0
 282 0 l 0
 164 0 l 0
 164 11 l 0
 201 11 202 31 199 44 c 0
 190 113 l 0
 82 113 l 0
 45 47 l 0
 32 23 44 11 69 11 c 0
 69 0 l 0
 -23 0 l 0
 -23 11 l 0
 -1 11 7 25 18 43 c 0
188 131 m 0
 168 261 l 0
 92 131 l 0
 188 131 l 0
EndSplineSet
EndChar

StartChar: B
Encoding: 66 66 65
Width: 305
VWidth: 0
Flags: HMW
LayerCount: 2
Fore
SplineSet
96 18 m 0
 165 18 174 28 194 54 c 0
 209 73 213 117 195 142 c 0
 185 156 170 162 161 162 c 0
 106 162 l 0
 75 49 l 0
 67 20 79 18 96 18 c 0
172 180 m 0
 184 180 202 187 218 206 c 0
 236 228 239 271 224 291 c 0
 215 303 202 312 178 312 c 0
 165 312 147 312 140 286 c 0
 111 180 l 0
 172 180 l 0
-13 11 m 0
 18 11 20 22 28 50 c 0
 91 280 l 0
 100 314 87 319 63 319 c 0
 63 330 l 0
 185 330 l 0
 214 330 241 322 255 310 c 0
 291 279 294 222 256 195 c 0
 237 182 217 174 198 172 c 0
 212 168 224 161 233 153 c 0
 270 121 268 70 230 34 c 0
 206 11 171 0 144 0 c 0
 -13 0 l 0
 -13 11 l 0
EndSplineSet
EndChar

StartChar: C
Encoding: 67 67 66
Width: 333
VWidth: 0
Flags: HMW
LayerCount: 2
Fore
SplineSet
298 231 m 0
 295 255 296 268 283 290 c 0
 263 326 191 334 146 293 c 0
 101 251 50 154 75 71 c 0
 95 1 199 0 267 74 c 0
 274 82 282 74 274 65 c 0
 200 -33 81 -28 35 52 c 0
 -8 128 31 250 128 313 c 0
 183 349 245 337 269 333 c 0
 293 330 311 317 317 338 c 0
 327 338 l 0
 308 231 l 0
 298 231 l 0
EndSplineSet
EndChar

StartChar: D
Encoding: 68 68 67
Width: 361
VWidth: 0
Flags: HMW
LayerCount: 2
Fore
SplineSet
177 312 m 0
 164 312 147 312 140 286 c 0
 75 49 l 0
 67 20 79 18 96 18 c 0
 181 18 220 41 249 83 c 0
 272 117 282 153 282 212 c 0
 282 235 278 258 268 274 c 0
 246 308 202 312 177 312 c 0
91 280 m 0
 100 314 87 319 63 319 c 0
 63 330 l 0
 184 330 l 0
 244 331 274 318 298 294 c 0
 360 232 344 117 273 56 c 0
 228 17 177 0 111 0 c 0
 -13 0 l 0
 -13 11 l 0
 18 11 20 22 28 50 c 0
 91 280 l 0
EndSplineSet
EndChar

StartChar: E
Encoding: 69 69 68
Width: 305
VWidth: 0
Flags: HMW
LayerCount: 2
Fore
SplineSet
166 162 m 0
 111 162 l 0
 80 48 l 0
 74 27 76 18 108 18 c 0
 155 18 l 0
 186 18 239 31 261 86 c 0
 274 86 l 0
 240 0 l 0
 -8 0 l 0
 -8 11 l 0
 22 11 24 22 32 50 c 0
 96 280 l 0
 105 314 92 319 68 319 c 0
 68 330 l 0
 305 330 l 0
 288 246 l 0
 278 246 l 0
 278 275 l 0
 278 288 277 312 223 312 c 0
 182 312 l 0
 152 312 150 301 142 273 c 0
 116 180 l 0
 171 180 l 0
 203 180 214 194 223 225 c 0
 236 225 l 0
 204 110 l 0
 194 110 l 0
 194 136 199 162 166 162 c 0
EndSplineSet
EndChar

StartChar: F
Encoding: 70 70 69
Width: 305
VWidth: 0
Flags: HMW
LayerCount: 2
Fore
SplineSet
80 50 m 0
 71 16 84 11 108 11 c 0
 108 0 l 0
 -8 0 l 0
 -8 11 l 0
 22 11 24 22 32 50 c 0
 96 280 l 0
 105 314 92 319 68 319 c 0
 68 330 l 0
 305 330 l 0
 288 246 l 0
 278 246 l 0
 278 275 l 0
 278 288 277 312 223 312 c 0
 182 312 l 0
 152 312 150 301 142 273 c 0
 116 180 l 0
 171 180 l 0
 203 180 214 194 223 225 c 0
 236 225 l 0
 204 110 l 0
 194 110 l 0
 194 136 199 162 166 162 c 0
 111 162 l 0
 80 50 l 0
EndSplineSet
EndChar

StartChar: G
Encoding: 71 71 70
Width: 361
VWidth: 0
Flags: HMW
LayerCount: 2
Fore
SplineSet
196 15 m 0
 227 22 230 25 239 52 c 0
 255 108 l 0
 264 142 251 147 224 147 c 0
 224 158 l 0
 351 158 l 0
 351 147 l 0
 343 147 l 0
 313 147 311 136 303 108 c 0
 277 18 l 0
 152 -26 78 -12 32 50 c 0
 -12 111 14 237 119 308 c 0
 174 345 237 344 278 325 c 0
 308 310 319 317 336 338 c 0
 348 338 l 0
 321 228 l 0
 311 228 l 0
 311 253 302 280 283 297 c 0
 249 329 184 330 139 287 c 0
 81 232 46 126 72 66 c 0
 97 7 148 4 196 15 c 0
EndSplineSet
EndChar

StartChar: H
Encoding: 72 72 71
Width: 361
VWidth: 0
Flags: HMW
LayerCount: 2
Fore
SplineSet
295 11 m 0
 295 0 l 0
 179 0 l 0
 179 11 l 0
 209 11 211 22 219 50 c 0
 250 162 l 0
 106 162 l 0
 76 50 l 0
 67 16 80 11 104 11 c 0
 104 0 l 0
 -12 0 l 0
 -12 11 l 0
 18 11 20 22 28 50 c 0
 91 280 l 0
 100 314 87 319 63 319 c 0
 63 330 l 0
 179 330 l 0
 179 319 l 0
 149 319 147 308 139 280 c 0
 111 180 l 0
 255 180 l 0
 283 280 l 0
 292 314 279 319 255 319 c 0
 255 330 l 0
 371 330 l 0
 371 319 l 0
 341 319 339 308 331 280 c 0
 267 50 l 0
 258 16 271 11 295 11 c 0
EndSplineSet
EndChar

StartChar: I
Encoding: 73 73 72
Width: 166
VWidth: 0
Flags: HMW
LayerCount: 2
Fore
SplineSet
75 50 m 0
 66 16 79 11 103 11 c 0
 103 0 l 0
 -13 0 l 0
 -13 11 l 0
 17 11 19 22 27 50 c 0
 91 280 l 0
 100 314 87 319 63 319 c 0
 63 330 l 0
 179 330 l 0
 179 319 l 0
 149 319 147 308 139 280 c 0
 75 50 l 0
EndSplineSet
EndChar

StartChar: J
Encoding: 74 74 73
Width: 222
VWidth: 0
Flags: HMW
LayerCount: 2
Fore
SplineSet
29 15 m 0
 38 5 60 -2 71 34 c 0
 141 282 l 0
 150 316 135 319 109 319 c 0
 109 330 l 0
 240 330 l 0
 240 319 l 0
 209 319 199 319 189 282 c 0
 127 63 l 0
 123 48 104 24 85 10 c 0
 48 -18 7 -10 -10 11 c 0
 -21 26 -20 53 -9 62 c 0
 -2 68 14 68 24 58 c 0
 37 48 20 25 29 15 c 0
EndSplineSet
EndChar

StartChar: K
Encoding: 75 75 74
Width: 333
VWidth: 0
Flags: HMW
LayerCount: 2
Fore
SplineSet
244 319 m 0
 244 330 l 0
 351 330 l 0
 351 319 l 0
 328 319 314 297 296 286 c 0
 160 189 l 0
 243 44 l 0
 260 17 263 11 294 11 c 0
 294 0 l 0
 163 0 l 0
 163 11 l 0
 217 11 201 30 184 60 c 0
 115 175 l 0
 80 50 l 0
 71 16 84 11 110 11 c 0
 110 0 l 0
 -8 0 l 0
 -8 11 l 0
 22 11 24 22 32 50 c 0
 96 280 l 0
 105 314 92 319 68 319 c 0
 68 330 l 0
 196 330 l 0
 196 319 l 0
 184 319 l 0
 154 319 152 308 144 280 c 0
 118 186 l 0
 268 294 l 0
 281 304 282 319 244 319 c 0
EndSplineSet
EndChar

StartChar: L
Encoding: 76 76 75
Width: 278
VWidth: 0
Flags: HMW
LayerCount: 2
Fore
SplineSet
-16 11 m 0
 14 11 16 22 24 50 c 0
 88 280 l 0
 97 314 84 319 60 319 c 0
 60 330 l 0
 176 330 l 0
 176 319 l 0
 146 319 144 308 136 280 c 0
 72 48 l 0
 66 27 68 18 100 18 c 0
 152 18 l 0
 239 18 254 83 257 94 c 0
 268 94 l 0
 242 0 l 0
 -16 0 l 0
 -16 11 l 0
EndSplineSet
EndChar

StartChar: M
Encoding: 77 77 76
Width: 416
VWidth: 0
Flags: HMW
LayerCount: 2
Fore
SplineSet
29 50 m 0
 92 280 l 0
 101 314 88 319 64 319 c 0
 64 330 l 0
 150 330 l 0
 172 76 l 0
 353 330 l 0
 425 330 l 0
 425 319 l 0
 407 319 398 315 390 285 c 0
 325 50 l 0
 316 16 329 11 356 11 c 0
 356 0 l 0
 230 0 l 0
 230 11 l 0
 238 11 l 0
 268 11 270 22 278 50 c 0
 339 273 l 0
 144 0 l 0
 135 0 l 0
 111 271 l 0
 51 50 l 0
 42 16 55 11 81 11 c 0
 81 0 l 0
 -12 0 l 0
 -12 11 l 0
 19 11 21 22 29 50 c 0
EndSplineSet
EndChar

StartChar: N
Encoding: 78 78 77
Width: 333
VWidth: 0
Flags: HMW
LayerCount: 2
Fore
SplineSet
44 50 m 0
 35 16 48 11 75 11 c 0
 75 0 l 0
 -18 0 l 0
 -18 11 l 0
 12 11 14 22 22 50 c 0
 86 280 l 0
 95 314 82 319 58 319 c 0
 52 319 l 0
 52 330 l 0
 125 330 l 0
 231 79 l 0
 287 280 l 0
 296 314 283 319 256 319 c 0
 256 330 l 0
 349 330 l 0
 349 319 l 0
 319 319 317 308 309 280 c 0
 229 -6 l 0
 220 -6 l 0
 104 266 l 0
 44 50 l 0
EndSplineSet
EndChar

StartChar: O
Encoding: 79 79 78
Width: 361
VWidth: 0
Flags: HMW
LayerCount: 2
Fore
SplineSet
225 55 m 0
 265 102 307 229 281 284 c 0
 260 330 192 341 134 275 c 0
 94 228 52 101 78 46 c 0
 99 0 167 -11 225 55 c 0
42 39 m 0
 -3 110 24 222 117 295 c 0
 196 358 281 347 317 291 c 0
 362 220 335 108 242 35 c 0
 163 -28 78 -17 42 39 c 0
EndSplineSet
EndChar

StartChar: P
Encoding: 80 80 79
Width: 305
VWidth: 0
Flags: HMW
LayerCount: 2
Fore
SplineSet
228 296 m 0
 206 317 179 314 163 309 c 0
 151 305 147 293 141 270 c 0
 115 176 l 0
 137 176 l 0
 194 176 207 185 224 204 c 0
 240 223 249 276 228 296 c 0
80 50 m 0
 71 16 84 11 108 11 c 0
 108 0 l 0
 -8 0 l 0
 -8 11 l 0
 22 11 24 22 32 50 c 0
 96 280 l 0
 105 314 92 319 68 319 c 0
 68 330 l 0
 206 330 l 0
 229 330 247 325 266 311 c 0
 300 285 301 228 259 188 c 0
 219 149 154 151 110 158 c 0
 80 50 l 0
EndSplineSet
EndChar

StartChar: Q
Encoding: 81 81 80
Width: 361
VWidth: 0
Flags: HMW
LayerCount: 2
Fore
SplineSet
134 275 m 0
 94 228 52 101 78 46 c 0
 99 0 170 -11 228 55 c 0
 268 102 310 229 284 284 c 0
 263 330 192 341 134 275 c 0
117 295 m 0
 196 358 284 347 320 291 c 0
 365 220 338 108 245 35 c 0
 197 -3 153 -12 122 -7 c 0
 99 -32 l 0
 137 -32 202 -55 232 -55 c 0
 257 -55 279 -42 299 -24 c 0
 306 -16 314 -23 308 -30 c 0
 268 -76 235 -90 198 -90 c 0
 141 -90 92 -45 35 -76 c 0
 20 -85 16 -76 29 -66 c 0
 104 -4 l 0
 83 -1 56 17 42 39 c 0
 -3 110 24 222 117 295 c 0
EndSplineSet
EndChar

StartChar: R
Encoding: 82 82 81
Width: 305
VWidth: 0
Flags: HMW
LayerCount: 2
Fore
SplineSet
267 11 m 0
 267 0 l 0
 198 0 l 0
 144 162 l 0
 104 164 l 0
 72 50 l 0
 63 16 76 11 100 11 c 0
 100 0 l 0
 -16 0 l 0
 -16 11 l 0
 14 11 16 22 24 50 c 0
 88 280 l 0
 97 314 84 319 60 319 c 0
 60 330 l 0
 197 330 l 0
 223 330 251 320 268 298 c 0
 291 270 289 215 249 189 c 0
 232 177 208 168 188 164 c 0
 227 44 l 0
 235 19 243 11 267 11 c 0
109 182 m 0
 191 175 214 198 220 212 c 0
 233 241 238 273 227 291 c 0
 214 313 196 312 174 312 c 0
 144 312 142 301 134 273 c 0
 109 182 l 0
EndSplineSet
EndChar

StartChar: S
Encoding: 83 83 82
Width: 250
VWidth: 0
Flags: HMW
LayerCount: 2
Fore
SplineSet
232 338 m 0
 242 338 l 0
 223 235 l 0
 212 235 l 0
 212 294 206 295 188 310 c 0
 170 325 132 321 119 305 c 0
 100 281 94 252 122 219 c 0
 181 152 l 0
 213 115 212 44 161 7 c 0
 128 -18 76 -7 54 4 c 0
 33 15 21 12 15 -8 c 0
 5 -8 l 0
 21 107 l 0
 31 107 l 0
 32 80 35 59 47 38 c 0
 63 10 114 -3 144 28 c 0
 163 47 171 89 147 118 c 0
 85 191 l 0
 43 241 65 297 102 322 c 0
 134 344 170 340 194 328 c 0
 210 320 226 321 232 338 c 0
EndSplineSet
EndChar

StartChar: T
Encoding: 84 84 83
Width: 278
VWidth: 0
Flags: HMW
LayerCount: 2
Fore
SplineSet
149 11 m 0
 157 11 l 0
 157 0 l 0
 25 0 l 0
 25 11 l 0
 33 11 l 0
 63 11 65 22 73 50 c 0
 146 312 l 0
 100 312 l 0
 64 312 48 292 24 248 c 0
 16 248 l 0
 35 330 l 0
 301 330 l 0
 282 248 l 0
 274 248 l 0
 274 299 265 312 231 312 c 0
 194 312 l 0
 121 50 l 0
 112 16 125 11 149 11 c 0
EndSplineSet
EndChar

StartChar: U
Encoding: 85 85 84
Width: 361
VWidth: 0
Flags: HMW
LayerCount: 2
Fore
SplineSet
330 280 m 0
 280 105 l 0
 272 75 255 44 234 24 c 0
 190 -18 100 -21 60 31 c 0
 44 53 34 79 44 116 c 0
 90 280 l 0
 99 314 87 319 60 319 c 0
 60 330 l 0
 186 330 l 0
 186 319 l 0
 178 319 l 0
 148 319 146 308 138 280 c 0
 92 116 l 0
 85 90 78 73 91 46 c 0
 106 17 179 2 221 39 c 0
 240 56 255 90 258 102 c 0
 308 280 l 0
 317 314 304 319 277 319 c 0
 277 330 l 0
 374 330 l 0
 374 319 l 0
 340 319 338 308 330 280 c 0
EndSplineSet
EndChar

StartChar: V
Encoding: 86 86 85
Width: 305
VWidth: 0
Flags: HMW
LayerCount: 2
Fore
SplineSet
52 290 m 0
 47 313 43 319 22 319 c 0
 22 330 l 0
 134 330 l 0
 134 319 l 0
 101 319 95 304 97 290 c 0
 132 65 l 0
 265 286 l 0
 274 301 276 319 239 319 c 0
 239 330 l 0
 330 330 l 0
 330 319 l 0
 320 319 303 312 292 293 c 0
 109 -8 l 0
 96 -8 l 0
 52 290 l 0
EndSplineSet
EndChar

StartChar: W
Encoding: 87 87 86
Width: 416
VWidth: 0
Flags: HMW
LayerCount: 2
Fore
SplineSet
239 270 m 0
 268 84 l 0
 370 280 l 0
 383 305 384 319 347 319 c 0
 347 330 l 0
 438 330 l 0
 438 319 l 0
 431 319 410 317 386 270 c 0
 241 -8 l 0
 230 -8 l 0
 203 193 l 0
 97 -8 l 0
 86 -8 l 0
 48 286 l 0
 45 311 39 319 18 319 c 0
 18 330 l 0
 130 330 l 0
 130 319 l 0
 102 319 88 314 95 270 c 0
 124 84 l 0
 198 225 l 0
 192 286 l 0
 189 311 183 319 162 319 c 0
 162 330 l 0
 274 330 l 0
 274 319 l 0
 246 319 232 314 239 270 c 0
EndSplineSet
EndChar

StartChar: X
Encoding: 88 88 87
Width: 305
VWidth: 0
Flags: HMW
LayerCount: 2
Fore
SplineSet
41 319 m 0
 31 319 l 0
 31 330 l 0
 158 330 l 0
 158 319 l 0
 124 319 115 307 131 270 c 0
 163 196 l 0
 231 270 l 0
 260 301 264 319 224 319 c 0
 224 330 l 0
 317 330 l 0
 317 319 l 0
 293 319 269 280 259 270 c 0
 172 176 l 0
 223 61 l 0
 235 36 234 11 265 11 c 0
 273 11 l 0
 273 0 l 0
 146 0 l 0
 146 11 l 0
 177 11 190 23 174 60 c 0
 140 140 l 0
 67 60 l 0
 38 29 35 11 75 11 c 0
 75 0 l 0
 -23 0 l 0
 -23 11 l 0
 6 11 30 50 40 60 c 0
 131 161 l 0
 83 270 l 0
 71 295 74 319 41 319 c 0
EndSplineSet
EndChar

StartChar: Y
Encoding: 89 89 88
Width: 278
VWidth: 0
Flags: HMW
LayerCount: 2
Fore
SplineSet
255 286 m 0
 149 152 l 0
 121 50 l 0
 112 16 125 11 149 11 c 0
 156 11 l 0
 156 0 l 0
 22 0 l 0
 22 11 l 0
 34 11 l 0
 64 11 66 22 74 50 c 0
 101 151 l 0
 66 286 l 0
 60 311 53 319 27 319 c 0
 27 330 l 0
 149 330 l 0
 149 319 l 0
 120 319 109 317 115 286 c 0
 140 174 l 0
 226 280 l 0
 251 310 234 319 209 319 c 0
 209 330 l 0
 300 330 l 0
 300 319 l 0
 295 319 282 320 255 286 c 0
EndSplineSet
EndChar

StartChar: Z
Encoding: 90 90 89
Width: 278
VWidth: 0
Flags: HMW
LayerCount: 2
Fore
SplineSet
249 77 m 0
 252 88 l 0
 264 86 l 0
 237 0 l 0
 -10 0 l 0
 -10 11 l 0
 230 312 l 0
 138 312 l 0
 88 312 58 307 42 257 c 0
 30 257 l 0
 53 330 l 0
 291 330 l 0
 291 319 l 0
 51 18 l 0
 152 18 l 0
 173 18 233 27 249 77 c 0
EndSplineSet
EndChar

StartChar: dieresis
Encoding: 91 168 90
Width: 166
VWidth: 0
Flags: HMW
LayerCount: 2
Fore
SplineSet
148 274 m 0
 138 284 138 300 147 310 c 0
 157 320 173 320 183 310 c 0
 193 300 193 284 183 274 c 0
 174 264 157 264 148 274 c 0
66 310 m 0
 76 320 92 320 102 310 c 0
 111 300 111 284 101 274 c 0
 92 264 75 264 66 274 c 0
 56 284 56 300 66 310 c 0
EndSplineSet
EndChar

StartChar: ring
Encoding: 92 730 91
Width: 166
VWidth: 0
Flags: HMW
LayerCount: 2
Fore
SplineSet
203 275 m 0
 217 288 217 310 204 323 c 0
 191 336 169 336 156 323 c 0
 143 309 143 288 155 275 c 0
 169 262 191 262 203 275 c 0
213 265 m 0
 195 246 164 246 145 265 c 0
 127 283 127 314 145 333 c 0
 164 352 195 352 214 333 c 0
 233 315 233 284 213 265 c 0
EndSplineSet
EndChar

StartChar: dotaccent
Encoding: 93 729 92
Width: 166
VWidth: 0
Flags: HMW
LayerCount: 2
Fore
SplineSet
65 304 m 0
 75 314 91 314 101 304 c 0
 110 294 110 278 100 268 c 0
 91 258 74 258 65 268 c 0
 55 278 55 294 65 304 c 0
EndSplineSet
EndChar

StartChar: circumflex
Encoding: 94 710 93
Width: 166
VWidth: 0
Flags: HMW
LayerCount: 2
Fore
SplineSet
170 251 m 0
 134 307 l 0
 66 251 l 0
 48 251 l 0
 121 338 l 0
 149 338 l 0
 187 251 l 0
 170 251 l 0
EndSplineSet
EndChar

StartChar: underscore
Encoding: 95 95 94
Width: 250
VWidth: 0
Flags: HMW
LayerCount: 2
Fore
SplineSet
255 -126 m 0
 -5 -126 l 0
 -5 -103 l 0
 255 -103 l 0
 255 -126 l 0
EndSplineSet
EndChar

StartChar: grave
Encoding: 96 96 95
Width: 166
VWidth: 0
Flags: HMW
LayerCount: 2
Fore
SplineSet
88 299 m 0
 65 315 96 344 115 324 c 0
 167 244 l 0
 147 244 l 0
 88 299 l 0
EndSplineSet
EndChar

StartChar: a
Encoding: 97 97 96
Width: 250
VWidth: 0
Flags: HMW
LayerCount: 2
Fore
SplineSet
184 190 m 0
 178 225 130 214 101 183 c 0
 60 140 41 62 51 38 c 0
 64 8 105 14 130 43 c 0
 168 87 189 167 184 190 c 0
190 52 m 0
 175 3 197 9 222 48 c 0
 227 56 235 52 229 42 c 0
 206 2 175 -17 156 -5 c 0
 141 6 149 34 154 52 c 0
 109 -16 40 -25 17 17 c 0
 -14 76 41 159 87 196 c 0
 139 236 188 228 194 196 c 0
 200 216 l 0
 237 223 l 0
 190 52 l 0
EndSplineSet
EndChar

StartChar: b
Encoding: 98 98 97
Width: 250
VWidth: 0
Flags: HMW
LayerCount: 2
Fore
SplineSet
51 31 m 0
 39 -13 123 -6 160 48 c 0
 189 91 203 160 190 186 c 0
 184 199 156 203 125 186 c 0
 95 168 88 152 79 135 c 0
 51 31 l 0
12 21 m 0
 85 291 l 0
 91 313 89 323 58 319 c 0
 58 330 l 0
 128 342 l 0
 130 337 130 327 129 321 c 0
 88 171 l 0
 132 224 201 240 226 202 c 0
 256 158 230 74 181 32 c 0
 127 -13 41 -26 12 21 c 0
EndSplineSet
EndChar

StartChar: c
Encoding: 99 99 98
Width: 222
VWidth: 0
Flags: HMW
LayerCount: 2
Fore
SplineSet
74 193 m 0
 124 231 185 230 202 207 c 0
 213 191 211 179 204 167 c 0
 197 156 178 158 172 174 c 0
 167 187 183 199 179 206 c 0
 173 216 135 218 102 191 c 0
 66 161 43 76 65 34 c 0
 83 -1 131 2 169 46 c 0
 175 54 182 49 177 42 c 0
 142 -9 72 -24 35 11 c 0
 -2 47 19 151 74 193 c 0
EndSplineSet
EndChar

StartChar: d
Encoding: 100 100 99
Width: 250
VWidth: 0
Flags: HMW
LayerCount: 2
Fore
SplineSet
118 35 m 0
 175 93 190 182 180 198 c 0
 170 215 142 212 124 201 c 0
 79 173 34 80 52 38 c 0
 63 13 100 16 118 35 c 0
123 21 m 0
 88 -21 36 -15 16 22 c 0
 -17 85 61 189 114 213 c 0
 161 233 188 221 190 195 c 0
 216 291 l 0
 223 317 215 323 189 319 c 0
 189 330 l 0
 259 342 l 0
 261 336 261 327 260 321 c 0
 187 52 l 0
 172 3 197 9 222 48 c 0
 227 56 235 52 229 42 c 0
 206 2 172 -17 153 -5 c 0
 138 6 146 34 154 60 c 0
 145 46 134 33 123 21 c 0
EndSplineSet
EndChar

StartChar: e
Encoding: 101 101 100
Width: 222
VWidth: 0
Flags: HMW
LayerCount: 2
Fore
SplineSet
160 152 m 0
 170 167 175 192 170 201 c 0
 165 210 145 212 125 198 c 0
 100 180 76 144 65 103 c 0
 120 115 147 132 160 152 c 0
180 44 m 0
 130 -21 53 -23 26 25 c 0
 -3 77 45 157 79 187 c 0
 129 230 182 232 199 207 c 0
 211 191 208 167 190 146 c 0
 165 118 136 107 63 91 c 0
 60 74 60 52 66 38 c 0
 79 8 130 4 174 50 c 0
 178 55 185 51 180 44 c 0
EndSplineSet
EndChar

StartChar: f
Encoding: 102 102 101
Width: 139
VWidth: 0
Flags: HMW
LayerCount: 2
Fore
SplineSet
51 6 m 0
 45 -17 32 -54 7 -83 c 0
 -19 -113 -59 -108 -70 -86 c 0
 -76 -72 -76 -60 -66 -52 c 0
 -58 -46 -45 -47 -38 -57 c 0
 -29 -67 -49 -83 -36 -91 c 0
 -30 -95 -18 -92 -9 -77 c 0
 -2 -65 6 -28 10 -13 c 0
 60 196 l 0
 22 196 l 0
 22 214 l 0
 64 214 l 0
 79 261 93 297 122 322 c 0
 148 344 182 340 196 327 c 0
 208 317 209 300 205 293 c 0
 193 275 175 276 166 288 c 0
 157 301 176 314 165 322 c 0
 160 325 150 326 138 316 c 0
 125 303 115 274 107 240 c 0
 101 214 l 0
 151 214 l 0
 151 196 l 0
 97 196 l 0
 51 6 l 0
EndSplineSet
EndChar

StartChar: g
Encoding: 103 103 102
Width: 250
VWidth: 0
Flags: HMW
LayerCount: 2
Fore
SplineSet
71 14 m 0
 64 9 57 4 51 -2 c 0
 41 -11 32 -24 31 -37 c 0
 29 -51 36 -66 46 -76 c 0
 59 -89 78 -92 97 -92 c 0
 119 -92 142 -87 154 -70 c 0
 162 -58 165 -40 158 -28 c 0
 152 -17 138 -12 124 -7 c 0
 71 14 l 0
89 104 m 0
 98 80 137 78 157 105 c 0
 169 121 186 169 178 193 c 0
 170 216 122 217 105 187 c 0
 93 167 81 124 89 104 c 0
98 44 m 0
 155 24 l 0
 200 8 205 -46 169 -81 c 0
 140 -111 40 -114 18 -78 c 0
 -6 -43 -2 -17 61 18 c 0
 61 18 l 0
 43 30 43 50 84 81 c 0
 35 106 42 163 83 198 c 0
 118 228 168 233 202 204 c 0
 236 202 l 0
 236 183 l 0
 213 182 l 0
 216 164 215 134 198 110 c 0
 183 88 142 69 98 76 c 0
 80 62 73 55 98 44 c 0
EndSplineSet
EndChar

StartChar: h
Encoding: 104 104 103
Width: 250
VWidth: 0
Flags: HMW
LayerCount: 2
Fore
SplineSet
235 42 m 0
 212 2 178 -17 159 -5 c 0
 144 6 152 33 157 51 c 0
 185 156 l 0
 190 175 195 188 189 193 c 0
 180 201 170 200 152 189 c 0
 136 177 104 147 67 73 c 0
 47 0 l 0
 11 0 l 0
 91 291 l 0
 96 307 100 324 64 319 c 0
 64 330 l 0
 134 342 l 0
 138 336 137 328 135 321 c 0
 81 124 l 0
 96 148 119 181 146 201 c 0
 172 222 211 234 222 209 c 0
 229 195 227 183 221 159 c 0
 193 51 l 0
 178 2 200 9 228 48 c 0
 233 56 241 52 235 42 c 0
EndSplineSet
EndChar

StartChar: i
Encoding: 105 105 104
Width: 139
VWidth: 0
Flags: HMW
LayerCount: 2
Fore
SplineSet
105 223 m 0
 109 217 108 210 106 202 c 0
 65 51 l 0
 50 2 74 9 102 48 c 0
 107 56 115 52 109 42 c 0
 86 2 50 -17 31 -5 c 0
 16 6 24 33 29 51 c 0
 62 172 l 0
 68 192 69 204 35 200 c 0
 35 211 l 0
 105 223 l 0
EndSplineSet
Refer: 92 729 N 1 0 0 1 24 19 0
EndChar

StartChar: j
Encoding: 106 106 105
Width: 139
VWidth: 0
Flags: HMW
LayerCount: 2
Fore
SplineSet
74 172 m 0
 80 192 81 204 47 200 c 0
 47 211 l 0
 117 223 l 0
 121 217 120 210 118 202 c 0
 60 -8 l 0
 56 -23 38 -73 17 -91 c 0
 -7 -112 -40 -106 -51 -86 c 0
 -55 -78 -58 -66 -50 -57 c 0
 -42 -48 -24 -47 -18 -60 c 0
 -14 -70 -20 -80 -25 -85 c 0
 -6 -105 6 -76 15 -41 c 0
 74 172 l 0
EndSplineSet
Refer: 92 729 N 1 0 0 1 36 19 0
EndChar

StartChar: k
Encoding: 107 107 106
Width: 222
VWidth: 0
Flags: HMW
LayerCount: 2
Fore
SplineSet
183 181 m 0
 122 133 l 0
 134 99 149 47 163 32 c 0
 178 15 183 20 201 48 c 0
 206 56 214 52 208 42 c 0
 200 26 195 16 183 2 c 0
 171 -10 147 -15 134 10 c 0
 116 44 105 77 95 110 c 0
 69 91 l 0
 44 0 l 0
 8 0 l 0
 88 291 l 0
 94 311 95 323 61 319 c 0
 61 330 l 0
 131 342 l 0
 135 336 134 329 132 321 c 0
 74 110 l 0
 167 183 l 0
 189 199 163 206 146 206 c 0
 146 215 l 0
 230 215 l 0
 230 206 l 0
 223 206 210 202 183 181 c 0
EndSplineSet
EndChar

StartChar: l
Encoding: 108 108 107
Width: 139
VWidth: 0
Flags: HMW
LayerCount: 2
Fore
SplineSet
93 291 m 0
 99 311 100 323 66 319 c 0
 66 330 l 0
 136 342 l 0
 140 336 139 329 137 321 c 0
 64 51 l 0
 49 2 71 9 99 48 c 0
 99 48 l 0
 104 56 112 52 106 42 c 0
 83 2 49 -17 30 -5 c 0
 15 6 23 33 28 51 c 0
 93 291 l 0
EndSplineSet
EndChar

StartChar: m
Encoding: 109 109 108
Width: 361
VWidth: 0
Flags: HMW
LayerCount: 2
Fore
SplineSet
147 189 m 0
 131 177 99 147 63 74 c 0
 42 0 l 0
 6 0 l 0
 55 172 l 0
 60 188 64 205 28 200 c 0
 28 211 l 0
 98 223 l 0
 102 217 101 209 99 202 c 0
 76 124 l 0
 91 148 114 181 141 201 c 0
 167 222 202 234 213 209 c 0
 220 195 218 183 212 159 c 0
 201 124 l 0
 214 146 237 181 264 201 c 0
 290 222 325 234 336 209 c 0
 343 195 341 183 335 159 c 0
 305 51 l 0
 290 2 312 9 340 48 c 0
 345 56 353 52 347 42 c 0
 324 2 290 -17 271 -5 c 0
 256 6 264 33 269 51 c 0
 299 156 l 0
 304 175 309 188 303 193 c 0
 294 201 288 200 270 189 c 0
 254 177 222 147 187 74 c 0
 166 0 l 0
 130 0 l 0
 176 157 l 0
 181 176 186 189 180 194 c 0
 171 201 165 200 147 189 c 0
EndSplineSet
EndChar

StartChar: n
Encoding: 110 110 109
Width: 250
VWidth: 0
Flags: HMW
LayerCount: 2
Fore
SplineSet
185 156 m 0
 189 175 195 188 189 193 c 0
 180 201 170 200 152 189 c 0
 136 177 104 147 67 73 c 0
 47 0 l 0
 11 0 l 0
 58 172 l 0
 63 188 67 205 31 200 c 0
 31 211 l 0
 101 223 l 0
 105 217 104 209 102 202 c 0
 81 124 l 0
 96 148 119 181 146 201 c 0
 172 222 211 234 222 209 c 0
 228 195 227 183 221 159 c 0
 193 51 l 0
 178 2 200 9 228 48 c 0
 233 56 241 52 235 42 c 0
 212 2 178 -17 159 -5 c 0
 144 6 152 33 157 51 c 0
 185 156 l 0
EndSplineSet
EndChar

StartChar: o
Encoding: 111 111 110
Width: 250
VWidth: 0
Flags: HMW
LayerCount: 2
Fore
SplineSet
60 20 m 0
 75 -5 119 -1 148 33 c 0
 192 86 203 172 188 195 c 0
 173 220 129 216 100 182 c 0
 56 129 45 43 60 20 c 0
162 19 m 0
 119 -15 64 -19 33 16 c 0
 -6 58 17 140 86 196 c 0
 129 230 184 234 215 199 c 0
 254 157 231 75 162 19 c 0
EndSplineSet
EndChar

StartChar: p
Encoding: 112 112 111
Width: 250
VWidth: 0
Flags: HMW
LayerCount: 2
Fore
SplineSet
48 5 m 0
 30 -63 l 0
 26 -76 28 -91 49 -91 c 0
 61 -91 l 0
 61 -103 l 0
 -38 -103 l 0
 -38 -91 l 0
 -15 -91 -13 -86 -7 -65 c 0
 58 172 l 0
 64 192 65 204 31 200 c 0
 31 211 l 0
 101 223 l 0
 105 217 104 210 102 202 c 0
 94 174 l 0
 135 230 202 235 221 203 c 0
 261 138 195 43 151 14 c 0
 118 -8 66 -17 48 5 c 0
86 146 m 0
 52 19 l 0
 64 -9 114 7 135 27 c 0
 176 66 203 156 183 185 c 0
 163 212 118 202 86 146 c 0
EndSplineSet
EndChar

StartChar: q
Encoding: 113 113 112
Width: 250
VWidth: 0
Flags: HMW
LayerCount: 2
Fore
SplineSet
197 185 m 0
 187 222 135 218 97 175 c 0
 54 126 42 49 56 32 c 0
 83 1 139 30 172 90 c 0
 197 185 l 0
22 9 m 0
 -18 70 45 160 83 191 c 0
 135 231 186 234 201 199 c 0
 206 215 l 0
 242 215 l 0
 167 -63 l 0
 163 -76 163 -91 184 -91 c 0
 196 -91 l 0
 196 -103 l 0
 97 -103 l 0
 97 -91 l 0
 120 -91 124 -86 130 -65 c 0
 165 62 l 0
 117 -21 39 -18 22 9 c 0
EndSplineSet
EndChar

StartChar: r
Encoding: 114 114 113
Width: 194
VWidth: 0
Flags: HMW
LayerCount: 2
Fore
SplineSet
144 211 m 0
 157 225 180 229 192 215 c 0
 197 210 198 193 191 183 c 0
 181 172 170 171 161 181 c 0
 152 190 148 199 137 188 c 0
 120 169 80 115 72 84 c 0
 48 0 l 0
 12 0 l 0
 61 172 l 0
 67 192 68 204 34 200 c 0
 34 211 l 0
 104 223 l 0
 108 217 107 210 105 202 c 0
 86 135 l 0
 110 170 123 189 144 211 c 0
EndSplineSet
EndChar

StartChar: s
Encoding: 115 115 114
Width: 194
VWidth: 0
Flags: HMW
LayerCount: 2
Fore
SplineSet
74 125 m 0
 55 154 51 179 69 202 c 0
 86 223 122 229 151 218 c 0
 159 215 172 209 175 223 c 0
 184 223 l 0
 172 148 l 0
 163 148 l 0
 163 187 156 196 142 205 c 0
 127 214 105 216 95 196 c 0
 89 184 95 169 106 149 c 0
 138 95 l 0
 163 54 147 22 125 7 c 0
 102 -10 71 -11 49 -4 c 0
 28 3 19 -2 17 -8 c 0
 8 -8 l 0
 20 75 l 0
 29 75 l 0
 30 55 36 34 44 22 c 0
 54 5 88 -7 104 15 c 0
 115 30 119 51 107 71 c 0
 74 125 l 0
EndSplineSet
EndChar

StartChar: t
Encoding: 116 116 115
Width: 139
VWidth: 0
Flags: HMW
LayerCount: 2
Fore
SplineSet
25 -4 m 0
 10 7 18 34 23 52 c 0
 62 196 l 0
 30 196 l 0
 30 222 52 192 109 274 c 0
 119 274 l 0
 103 214 l 0
 144 214 l 0
 144 196 l 0
 98 196 l 0
 59 52 l 0
 44 3 66 10 94 49 c 0
 99 57 107 53 101 43 c 0
 78 3 44 -16 25 -4 c 0
EndSplineSet
EndChar

StartChar: u
Encoding: 117 117 116
Width: 250
VWidth: 0
Flags: HMW
LayerCount: 2
Fore
SplineSet
34 200 m 0
 34 211 l 0
 104 223 l 0
 108 217 107 210 105 202 c 0
 62 46 l 0
 54 17 68 18 84 25 c 0
 110 36 129 63 150 94 c 0
 174 132 185 159 191 182 c 0
 200 215 l 0
 236 215 l 0
 191 51 l 0
 176 2 198 9 226 48 c 0
 231 56 239 52 233 42 c 0
 210 2 176 -17 157 -5 c 0
 142 6 150 33 155 51 c 0
 169 103 l 0
 146 65 107 9 64 -4 c 0
 36 -13 12 -9 24 37 c 0
 61 172 l 0
 67 192 68 204 34 200 c 0
EndSplineSet
EndChar

StartChar: v
Encoding: 118 118 117
Width: 222
VWidth: 0
Flags: HMW
LayerCount: 2
Fore
SplineSet
66 -8 m 0
 70 53 62 150 53 180 c 0
 47 200 34 204 12 200 c 0
 12 211 l 0
 78 223 l 0
 92 165 100 96 102 39 c 0
 117 57 161 96 186 155 c 0
 199 182 156 190 171 217 c 0
 177 226 195 225 204 217 c 0
 215 206 215 180 204 157 c 0
 179 103 101 25 78 -8 c 0
 66 -8 l 0
EndSplineSet
EndChar

StartChar: w
Encoding: 119 119 118
Width: 333
VWidth: 0
Flags: HMW
LayerCount: 2
Fore
SplineSet
52 -8 m 0
 57 100 47 166 44 184 c 0
 42 194 38 201 7 200 c 0
 7 211 l 0
 71 223 l 0
 81 183 87 117 90 65 c 0
 105 85 156 166 186 223 c 0
 199 223 l 0
 218 42 l 0
 231 58 274 97 299 155 c 0
 312 182 269 190 284 217 c 0
 290 226 308 225 317 217 c 0
 328 206 328 180 317 157 c 0
 296 114 220 26 196 -8 c 0
 186 -8 l 0
 169 166 l 0
 138 117 89 37 62 -8 c 0
 52 -8 l 0
EndSplineSet
EndChar

StartChar: x
Encoding: 120 120 119
Width: 222
VWidth: 0
Flags: HMW
LayerCount: 2
Fore
SplineSet
-12 26 m 0
 -6 31 8 35 16 29 c 0
 28 18 33 17 52 43 c 0
 96 105 l 0
 82 177 l 0
 76 211 66 205 37 200 c 0
 34 211 l 0
 79 220 l 0
 97 225 107 228 114 196 c 0
 124 141 l 0
 164 195 l 0
 171 204 177 213 190 220 c 0
 198 224 209 224 217 220 c 0
 226 214 227 203 220 193 c 0
 215 186 201 186 191 193 c 0
 185 198 179 197 168 183 c 0
 126 128 l 0
 147 31 l 0
 152 14 174 11 194 46 c 0
 199 54 207 50 201 40 c 0
 176 -5 139 -18 124 0 c 0
 119 6 114 19 111 31 c 0
 99 92 l 0
 65 43 l 0
 55 29 42 9 28 -1 c 0
 17 -9 0 -13 -13 2 c 0
 -19 10 -16 22 -12 26 c 0
EndSplineSet
EndChar

StartChar: y
Encoding: 121 121 120
Width: 222
VWidth: 0
Flags: HMW
LayerCount: 2
Fore
SplineSet
19 200 m 0
 19 211 l 0
 73 221 l 0
 86 224 90 224 94 214 c 0
 105 183 123 118 134 49 c 0
 161 81 196 160 188 174 c 0
 181 188 172 186 168 192 c 0
 161 201 162 210 167 216 c 0
 177 226 201 226 208 209 c 0
 227 168 132 -10 44 -91 c 0
 22 -111 -1 -107 -10 -95 c 0
 -18 -84 -14 -71 -4 -64 c 0
 7 -57 24 -62 40 -75 c 0
 62 -58 87 -29 104 -3 c 0
 100 44 84 129 69 170 c 0
 57 202 53 205 19 200 c 0
EndSplineSet
EndChar

StartChar: z
Encoding: 122 122 121
Width: 194
VWidth: 0
Flags: HMW
LayerCount: 2
Fore
SplineSet
40 153 m 0
 30 153 l 0
 47 215 l 0
 190 215 l 0
 40 33 l 0
 121 33 l 0
 128 33 139 34 148 60 c 0
 158 60 l 0
 142 0 l 0
 1 0 l 0
 149 182 l 0
 68 182 l 0
 59 182 50 179 40 153 c 0
EndSplineSet
EndChar

StartChar: breve
Encoding: 123 728 122
Width: 166
VWidth: 0
Flags: HMW
LayerCount: 2
Fore
SplineSet
81 320 m 0
 85 294 98 282 118 282 c 0
 143 282 168 294 184 318 c 0
 200 318 l 0
 180 282 173 277 153 263 c 0
 122 246 101 252 83 266 c 0
 70 282 68 297 67 320 c 0
 81 320 l 0
EndSplineSet
EndChar

StartChar: macron
Encoding: 124 175 123
Width: 166
VWidth: 0
Flags: HMW
LayerCount: 2
Fore
SplineSet
183 272 m 0
 60 272 l 0
 66 302 l 0
 189 302 l 0
 183 272 l 0
EndSplineSet
EndChar

StartChar: hungarumlaut
Encoding: 125 733 124
Width: 166
VWidth: 0
Flags: HMW
LayerCount: 2
Fore
SplineSet
130 268 m 0
 102 268 l 0
 130 350 l 0
 146 397 186 376 168 342 c 0
 130 268 l 0
58 353 m 0
 72 392 110 380 94 343 c 0
 56 268 l 0
 28 268 l 0
 58 353 l 0
EndSplineSet
EndChar

StartChar: tilde
Encoding: 126 732 125
Width: 166
VWidth: 0
Flags: HMW
LayerCount: 2
Fore
SplineSet
57 258 m 0
 57 270 62 295 83 306 c 0
 107 320 150 286 169 298 c 0
 176 303 182 312 182 319 c 0
 193 319 l 0
 193 307 188 282 167 271 c 0
 143 257 100 291 81 279 c 0
 74 274 68 265 68 258 c 0
 57 258 l 0
EndSplineSet
EndChar

StartChar: caron
Encoding: 127 711 126
Width: 166
VWidth: 0
Flags: HMW
LayerCount: 2
Fore
SplineSet
193 338 m 0
 211 338 l 0
 137 251 l 0
 109 251 l 0
 70 338 l 0
 87 338 l 0
 129 281 l 0
 193 338 l 0
EndSplineSet
EndChar

StartChar: onesuperior
Encoding: 128 185 127
Width: 150
VWidth: 0
Flags: HMW
LayerCount: 2
Fore
SplineSet
59 160 m 0
 100 297 l 0
 108 322 102 331 86 327 c 0
 76 325 l 0
 76 330 l 0
 137 342 l 0
 139 337 l 0
 86 160 l 0
 81 145 88 139 102 139 c 0
 108 139 l 0
 108 133 l 0
 22 133 l 0
 22 139 l 0
 32 139 l 0
 41 139 52 141 59 160 c 0
EndSplineSet
EndChar

StartChar: twosuperior
Encoding: 129 178 128
Width: 150
VWidth: 0
Flags: HMW
LayerCount: 2
Fore
SplineSet
32 292 m 0
 28 285 22 289 27 298 c 0
 50 348 108 351 125 333 c 0
 143 314 162 281 99 220 c 0
 35 159 l 0
 106 159 l 0
 116 159 120 166 125 177 c 0
 132 177 l 0
 116 133 l 0
 4 133 l 0
 4 140 l 0
 78 215 l 0
 119 257 122 290 105 309 c 0
 91 325 53 323 32 292 c 0
EndSplineSet
EndChar

StartChar: threesuperior
Encoding: 130 179 129
Width: 150
VWidth: 0
Flags: HMW
LayerCount: 2
Fore
SplineSet
59 316 m 0
 72 340 104 349 128 339 c 0
 153 328 168 280 98 254 c 0
 129 251 152 197 105 152 c 0
 81 128 27 123 14 135 c 0
 7 144 6 152 11 157 c 0
 33 175 53 115 96 158 c 0
 111 172 114 218 89 233 c 0
 75 241 61 243 56 243 c 0
 45 243 45 252 53 252 c 0
 67 252 85 254 103 267 c 0
 128 283 127 311 118 321 c 0
 106 335 78 330 65 314 c 0
 58 304 54 308 59 316 c 0
EndSplineSet
EndChar

StartChar: foursuperior
Encoding: 131 8308 130
Width: 150
VWidth: 0
Flags: HMW
LayerCount: 2
Fore
SplineSet
73 205 m 0
 103 305 l 0
 5 205 l 0
 73 205 l 0
-10 198 m 0
 -9 207 -1 213 4 218 c 0
 121 339 l 0
 138 339 l 0
 99 205 l 0
 126 205 l 0
 120 186 l 0
 93 186 l 0
 78 133 l 0
 52 133 l 0
 67 186 l 0
 -11 186 l 0
 -10 198 l 0
EndSplineSet
EndChar

StartChar: fraction
Encoding: 132 8260 131
Width: 83
VWidth: 0
Flags: HMW
LayerCount: 2
Fore
SplineSet
-88 -8 m 0
 135 338 l 0
 159 338 l 0
 -64 -8 l 0
 -88 -8 l 0
EndSplineSet
EndChar

StartChar: percent
Encoding: 136 37 135
Width: 416
VWidth: 0
Flags: HMW
LayerCount: 2
Fore
SplineSet
363 158 m 0
 351 171 321 175 299 150 c 0
 269 116 260 57 266 37 c 0
 273 12 308 14 331 34 c 0
 361 59 381 139 363 158 c 0
339 21 m 0
 304 -11 254 -3 238 24 c 0
 215 65 234 135 282 169 c 0
 324 198 361 188 375 168 c 0
 399 134 377 55 339 21 c 0
174 297 m 0
 166 299 152 308 147 314 c 0
 133 314 115 305 104 291 c 0
 80 262 62 210 69 177 c 0
 74 153 113 153 141 177 c 0
 162 195 189 257 174 297 c 0
271 298 m 0
 240 282 205 282 186 292 c 0
 198 255 179 196 149 166 c 0
 113 132 64 129 43 163 c 0
 14 210 45 280 86 309 c 0
 120 334 156 339 177 316 c 0
 203 289 269 293 295 338 c 0
 317 338 l 0
 128 -8 l 0
 103 -8 l 0
 271 298 l 0
EndSplineSet
EndChar

StartChar: perthousand
Encoding: 137 8240 136
Width: 500
VWidth: 0
Flags: HMW
LayerCount: 2
Fore
SplineSet
230 306 m 0
 200 287 161 289 140 296 c 0
 144 261 140 211 100 171 c 0
 73 146 33 153 16 169 c 0
 -11 197 -10 266 30 309 c 0
 73 352 105 343 136 315 c 0
 150 301 208 293 240 337 c 0
 271 337 l 0
 69 -6 l 0
 46 -6 l 0
 230 306 l 0
125 301 m 0
 114 306 103 313 97 323 c 0
 80 318 77 314 69 306 c 0
 32 268 32 193 43 179 c 0
 55 168 71 168 92 186 c 0
 122 216 135 264 125 301 c 0
487 165 m 0
 517 135 501 56 465 20 c 0
 431 -12 385 -12 366 5 c 0
 340 31 341 103 388 150 c 0
 422 185 468 185 487 165 c 0
477 153 m 0
 465 165 444 165 424 145 c 0
 380 101 380 30 394 16 c 0
 406 5 428 5 448 25 c 0
 495 71 496 135 477 153 c 0
209 147 m 0
 234 175 293 195 317 157 c 0
 339 117 323 40 271 5 c 0
 238 -13 194 -15 178 26 c 0
 165 61 178 117 209 147 c 0
248 145 m 0
 213 110 204 53 212 26 c 0
 218 5 250 0 273 25 c 0
 307 60 319 105 310 135 c 0
 299 172 269 165 248 145 c 0
EndSplineSet
EndChar

StartChar: degree
Encoding: 138 176 137
Width: 200
VWidth: 0
Flags: HMW
LayerCount: 2
Fore
SplineSet
57 213 m 0
 28 242 28 290 57 319 c 0
 87 348 134 348 163 319 c 0
 192 291 192 243 162 213 c 0
 134 184 86 184 57 213 c 0
70 226 m 0
 92 204 128 204 150 226 c 0
 172 248 172 285 151 306 c 0
 128 328 93 328 71 306 c 0
 49 284 49 248 70 226 c 0
EndSplineSet
EndChar

StartChar: periodcentered
Encoding: 139 183 138
Width: 125
VWidth: 0
Flags: HMW
LayerCount: 2
Fore
SplineSet
48 105 m 0
 36 117 36 137 48 149 c 0
 60 161 80 161 92 149 c 0
 103 137 103 118 91 105 c 0
 80 93 60 93 48 105 c 0
EndSplineSet
EndChar

StartChar: bullet
Encoding: 140 8226 139
Width: 175
VWidth: 0
Flags: HMW
LayerCount: 2
Fore
SplineSet
42 106 m 0
 19 130 19 170 43 194 c 0
 68 218 107 218 131 194 c 0
 154 171 154 131 130 106 c 0
 107 82 67 82 42 106 c 0
EndSplineSet
EndChar

StartChar: guilsinglleft
Encoding: 141 8249 140
Width: 166
VWidth: 0
Flags: HMW
LayerCount: 2
Fore
SplineSet
39 121 m 0
 127 190 l 0
 132 195 136 200 138 200 c 0
 145 200 146 193 137 180 c 0
 124 162 90 132 65 111 c 0
 101 39 l 0
 105 30 106 24 102 21 c 0
 96 16 90 34 79 47 c 0
 36 97 l 0
 27 107 27 112 39 121 c 0
EndSplineSet
EndChar

StartChar: guilsinglright
Encoding: 142 8250 141
Width: 166
VWidth: 0
Flags: HMW
LayerCount: 2
Fore
SplineSet
27 41 m 0
 40 59 74 86 99 107 c 0
 63 182 l 0
 59 191 58 197 62 200 c 0
 68 205 74 187 85 174 c 0
 128 121 l 0
 137 111 137 106 125 97 c 0
 37 31 l 0
 32 26 28 21 26 21 c 0
 19 21 18 28 27 41 c 0
EndSplineSet
EndChar

StartChar: guillemotleft
Encoding: 143 171 142
Width: 250
VWidth: 0
Flags: HMW
LayerCount: 2
Fore
SplineSet
216 180 m 0
 203 162 169 132 144 111 c 0
 180 39 l 0
 184 30 185 24 181 21 c 0
 175 16 169 34 158 47 c 0
 115 97 l 0
 106 107 106 112 118 121 c 0
 206 190 l 0
 211 195 215 200 217 200 c 0
 224 200 225 193 216 180 c 0
33 97 m 0
 24 107 24 112 36 121 c 0
 124 190 l 0
 129 195 133 200 135 200 c 0
 142 200 143 193 134 180 c 0
 121 162 87 132 62 111 c 0
 98 39 l 0
 102 30 103 24 99 21 c 0
 93 16 87 34 76 47 c 0
 33 97 l 0
EndSplineSet
EndChar

StartChar: guillemotright
Encoding: 144 187 143
Width: 250
VWidth: 0
Flags: HMW
LayerCount: 2
Fore
SplineSet
31 21 m 0
 24 21 23 28 32 41 c 0
 45 59 79 86 104 107 c 0
 68 182 l 0
 64 191 63 197 67 200 c 0
 73 205 79 187 90 174 c 0
 133 121 l 0
 142 111 142 106 130 97 c 0
 42 31 l 0
 37 26 33 21 31 21 c 0
212 97 m 0
 124 31 l 0
 119 26 115 21 113 21 c 0
 106 21 105 28 114 41 c 0
 127 59 161 86 186 107 c 0
 150 182 l 0
 146 191 145 197 149 200 c 0
 155 205 161 187 172 174 c 0
 215 121 l 0
 224 111 224 106 212 97 c 0
EndSplineSet
EndChar

StartChar: paragraph
Encoding: 145 182 144
Width: 261
VWidth: 0
Flags: HMW
LayerCount: 2
Fore
SplineSet
106 124 m 0
 91 126 75 132 62 152 c 0
 41 184 47 259 109 311 c 0
 129 327 149 338 186 338 c 0
 267 338 l 0
 263 319 l 0
 243 319 l 0
 126 -98 l 0
 105 -98 l 0
 222 319 l 0
 182 319 l 0
 65 -98 l 0
 44 -98 l 0
 106 124 l 0
EndSplineSet
EndChar

StartChar: section
Encoding: 146 167 145
Width: 250
VWidth: 0
Flags: HMW
LayerCount: 2
Fore
SplineSet
112 226 m 0
 88 231 73 217 73 189 c 0
 73 166 114 107 137 99 c 0
 159 91 179 106 179 129 c 0
 179 167 137 221 112 226 c 0
63 121 m 0
 19 177 59 262 127 233 c 0
 108 256 l 0
 86 284 86 325 112 352 c 0
 134 376 192 380 214 357 c 0
 229 343 235 310 218 297 c 0
 211 291 195 289 185 297 c 0
 173 306 177 331 193 340 c 0
 199 342 200 349 191 357 c 0
 182 367 149 370 128 344 c 0
 112 323 118 302 139 272 c 0
 189 203 l 0
 230 148 198 68 133 88 c 0
 151 64 l 0
 168 41 170 0 141 -26 c 0
 106 -58 50 -55 30 -22 c 0
 17 -1 19 24 31 32 c 0
 44 41 62 38 68 27 c 0
 74 15 71 -2 60 -8 c 0
 52 -13 45 -15 56 -26 c 0
 69 -39 96 -43 116 -25 c 0
 131 -11 143 19 115 55 c 0
 63 121 l 0
EndSplineSet
EndChar

StartChar: plus
Encoding: 147 43 146
Width: 337
VWidth: 0
Flags: HMW
LayerCount: 2
Fore
SplineSet
43 142 m 0
 153 142 l 0
 153 253 l 0
 185 253 l 0
 185 142 l 0
 295 142 l 0
 295 110 l 0
 185 110 l 0
 185 0 l 0
 153 0 l 0
 153 110 l 0
 43 110 l 0
 43 142 l 0
EndSplineSet
EndChar

StartChar: multiply
Encoding: 148 215 147
Width: 337
VWidth: 0
Flags: HMW
LayerCount: 2
Fore
SplineSet
43 227 m 0
 66 250 l 0
 169 147 l 0
 272 250 l 0
 295 227 l 0
 192 124 l 0
 295 21 l 0
 272 -2 l 0
 169 101 l 0
 66 -2 l 0
 43 21 l 0
 146 124 l 0
 43 227 l 0
EndSplineSet
EndChar

StartChar: divide
Encoding: 149 247 148
Width: 337
VWidth: 0
Flags: HMW
LayerCount: 2
Fore
SplineSet
151 243 m 0
 161 253 177 253 187 243 c 0
 196 233 196 217 186 207 c 0
 177 197 160 197 151 207 c 0
 141 217 141 233 151 243 c 0
151 41 m 0
 161 51 177 51 187 41 c 0
 196 31 196 15 186 5 c 0
 177 -5 160 -5 151 5 c 0
 141 15 141 31 151 41 c 0
295 142 m 0
 295 110 l 0
 43 110 l 0
 43 142 l 0
 295 142 l 0
EndSplineSet
EndChar

StartChar: plusminus
Encoding: 150 177 149
Width: 337
VWidth: 0
Flags: HMW
LayerCount: 2
Fore
SplineSet
43 210 m 0
 153 210 l 0
 153 321 l 0
 185 321 l 0
 185 210 l 0
 295 210 l 0
 295 179 l 0
 185 179 l 0
 185 69 l 0
 153 69 l 0
 153 179 l 0
 43 179 l 0
 43 210 l 0
295 31 m 0
 295 0 l 0
 43 0 l 0
 43 31 l 0
 295 31 l 0
EndSplineSet
EndChar

StartChar: endash
Encoding: 151 8211 150
Width: 250
VWidth: 0
Flags: HMW
LayerCount: 2
Fore
SplineSet
251 121 m 0
 251 97 l 0
 2 97 l 0
 2 121 l 0
 251 121 l 0
EndSplineSet
EndChar

StartChar: emdash
Encoding: 152 8212 151
Width: 444
VWidth: 0
Flags: HMW
LayerCount: 2
Fore
SplineSet
-32 121 m 0
 473 121 l 0
 473 97 l 0
 -32 97 l 0
 -32 121 l 0
EndSplineSet
EndChar

StartChar: minus
Encoding: 153 8722 152
Width: 337
VWidth: 0
Flags: HMW
LayerCount: 2
Fore
SplineSet
43 142 m 0
 295 142 l 0
 295 110 l 0
 43 110 l 0
 43 142 l 0
EndSplineSet
EndChar

StartChar: bracketleft
Encoding: 154 91 153
Width: 194
VWidth: 0
Flags: HMW
LayerCount: 2
Fore
SplineSet
104 -68 m 0
 102 -82 l 0
 11 -82 l 0
 109 330 l 0
 196 330 l 0
 193 316 l 0
 143 316 141 309 131 267 c 0
 62 -22 l 0
 52 -64 62 -67 104 -68 c 0
EndSplineSet
EndChar

StartChar: bracketright
Encoding: 155 93 154
Width: 194
VWidth: 0
Flags: HMW
LayerCount: 2
Fore
SplineSet
52 -19 m 0
 121 270 l 0
 131 312 121 315 79 316 c 0
 81 330 l 0
 172 330 l 0
 74 -82 l 0
 -13 -82 l 0
 -10 -68 l 0
 40 -68 42 -61 52 -19 c 0
EndSplineSet
EndChar

StartChar: dagger
Encoding: 156 8224 155
Width: 250
VWidth: 0
Flags: HMW
LayerCount: 2
Fore
SplineSet
93 260 m 0
 105 255 128 251 138 251 c 0
 152 328 133 333 149 358 c 0
 158 371 177 370 184 357 c 0
 197 333 170 320 152 251 c 0
 162 251 190 255 202 263 c 0
 212 270 227 269 235 260 c 0
 245 250 241 235 234 229 c 0
 222 217 206 226 194 231 c 0
 182 236 159 239 149 239 c 0
 143 213 144 175 150 154 c 0
 133 132 121 105 117 87 c 0
 86 -48 l 0
 73 -48 l 0
 103 90 l 0
 107 111 107 137 104 160 c 0
 118 173 126 186 135 239 c 0
 125 239 97 236 85 228 c 0
 75 221 60 222 52 231 c 0
 42 241 46 256 53 262 c 0
 65 274 81 265 93 260 c 0
EndSplineSet
EndChar

StartChar: daggerdbl
Encoding: 157 8225 156
Width: 250
VWidth: 0
Flags: HMW
LayerCount: 2
Fore
SplineSet
119 75 m 0
 129 75 157 78 169 86 c 0
 179 93 194 92 202 83 c 0
 212 73 208 58 201 52 c 0
 189 40 173 49 161 54 c 0
 149 59 126 63 116 63 c 0
 102 -14 121 -19 105 -44 c 0
 96 -57 77 -56 70 -43 c 0
 57 -19 84 -6 102 63 c 0
 92 63 64 59 52 51 c 0
 42 44 27 45 19 54 c 0
 9 64 13 79 20 85 c 0
 32 97 48 88 60 83 c 0
 72 78 95 75 105 75 c 0
 111 101 110 139 104 160 c 0
 118 173 126 186 135 239 c 0
 125 239 97 236 85 228 c 0
 75 221 60 222 52 231 c 0
 42 241 46 256 53 262 c 0
 65 274 81 265 93 260 c 0
 105 255 128 251 138 251 c 0
 152 328 133 333 149 358 c 0
 158 371 177 370 184 357 c 0
 197 333 170 320 152 251 c 0
 162 251 190 255 202 263 c 0
 212 270 227 269 235 260 c 0
 245 250 241 235 234 229 c 0
 222 217 206 226 194 231 c 0
 182 236 159 239 149 239 c 0
 143 213 144 175 150 154 c 0
 136 141 128 128 119 75 c 0
EndSplineSet
EndChar

StartChar: braceleft
Encoding: 158 123 157
Width: 200
VWidth: 0
Flags: HMW
LayerCount: 2
Fore
SplineSet
118 292 m 0
 127 329 155 338 177 338 c 0
 206 338 l 0
 201 319 l 0
 181 319 l 0
 170 318 150 318 143 289 c 0
 116 174 l 0
 110 148 86 122 65 122 c 0
 72 122 99 103 92 75 c 0
 68 -29 l 0
 62 -54 66 -71 86 -71 c 0
 110 -71 l 0
 105 -90 l 0
 81 -90 l 0
 47 -90 34 -63 42 -29 c 0
 67 79 l 0
 73 104 51 116 34 116 c 0
 37 134 l 0
 53 134 81 137 89 170 c 0
 118 292 l 0
EndSplineSet
EndChar

StartChar: braceright
Encoding: 159 125 158
Width: 200
VWidth: 0
Flags: HMW
LayerCount: 2
Fore
SplineSet
98 319 m 0
 63 319 l 0
 68 338 l 0
 103 338 l 0
 137 338 150 311 142 277 c 0
 117 169 l 0
 111 144 133 132 150 132 c 0
 147 114 l 0
 131 114 103 111 95 78 c 0
 66 -44 l 0
 57 -81 29 -90 7 -90 c 0
 -33 -90 l 0
 -28 -71 l 0
 3 -71 l 0
 14 -70 34 -70 41 -41 c 0
 68 74 l 0
 74 100 98 126 119 126 c 0
 112 126 85 145 92 173 c 0
 116 277 l 0
 122 302 118 319 98 319 c 0
EndSplineSet
EndChar

StartChar: at
Encoding: 160 64 159
Width: 460
VWidth: 0
Flags: HMW
LayerCount: 2
Fore
SplineSet
227 185 m 0
 183 131 161 67 173 34 c 0
 180 14 211 11 237 38 c 0
 274 76 304 161 291 194 c 0
 283 214 250 212 227 185 c 0
307 201 m 0
 311 215 l 0
 341 215 l 0
 295 42 l 0
 285 5 332 20 367 46 c 0
 418 85 448 195 368 264 c 0
 298 323 192 307 121 219 c 0
 61 144 45 56 82 -8 c 0
 126 -86 246 -106 349 -66 c 0
 352 -83 l 0
 235 -124 106 -95 52 -23 c 0
 -10 59 31 174 99 239 c 0
 201 335 308 342 381 273 c 0
 442 215 458 116 379 34 c 0
 343 -5 248 -31 260 21 c 0
 270 60 l 0
 230 -17 154 -22 137 12 c 0
 111 62 155 151 216 200 c 0
 257 233 293 229 307 201 c 0
EndSplineSet
EndChar

StartChar: ampersand
Encoding: 161 38 160
Width: 389
VWidth: 0
Flags: HMW
LayerCount: 2
Fore
SplineSet
244 308 m 0
 235 321 216 327 201 311 c 0
 182 290 182 261 191 214 c 0
 208 222 230 241 242 258 c 0
 254 275 253 296 244 308 c 0
76 96 m 0
 73 82 71 69 83 47 c 0
 97 24 148 -1 202 44 c 0
 186 69 163 131 158 176 c 0
 98 147 84 126 76 96 c 0
40 107 m 0
 56 139 91 163 155 193 c 0
 145 259 161 302 185 322 c 0
 210 343 250 345 269 321 c 0
 285 302 284 272 265 249 c 0
 250 231 231 217 194 196 c 0
 200 159 214 101 231 75 c 0
 271 114 302 167 256 167 c 0
 256 176 l 0
 341 176 l 0
 341 167 l 0
 296 167 302 119 238 59 c 0
 268 10 311 9 338 27 c 0
 348 34 353 30 347 22 c 0
 318 -20 249 -19 211 31 c 0
 150 -18 84 -21 47 20 c 0
 25 43 25 78 40 107 c 0
EndSplineSet
EndChar

StartChar: asciicircum
Encoding: 162 94 161
Width: 211
VWidth: 0
Flags: HMW
LayerCount: 2
Fore
SplineSet
4 126 m 0
 132 327 l 0
 169 327 l 0
 229 125 l 0
 191 125 l 0
 149 291 l 0
 43 126 l 0
 4 126 l 0
EndSplineSet
EndChar

StartChar: bar
Encoding: 163 124 162
Width: 137
VWidth: 0
Flags: HMW
LayerCount: 2
Fore
SplineSet
-6 -101 m 0
 107 335 l 0
 126 335 l 0
 13 -101 l 0
 -6 -101 l 0
EndSplineSet
EndChar

StartChar: brokenbar
Encoding: 164 166 163
Width: 137
VWidth: 0
Flags: HMW
LayerCount: 2
Fore
SplineSet
40 75 m 0
 59 75 l 0
 13 -101 l 0
 -6 -101 l 0
 40 75 l 0
80 159 m 0
 61 159 l 0
 107 335 l 0
 126 335 l 0
 80 159 l 0
EndSplineSet
EndChar

StartChar: logicalnot
Encoding: 165 172 164
Width: 337
VWidth: 0
Flags: HMW
LayerCount: 2
Fore
SplineSet
43 157 m 0
 43 189 l 0
 295 189 l 0
 295 55 l 0
 263 55 l 0
 263 157 l 0
 43 157 l 0
EndSplineSet
EndChar

StartChar: copyright
Encoding: 166 169 165
Width: 380
VWidth: 0
Flags: HMW
LayerCount: 2
Fore
SplineSet
310 281 m 0
 376 215 376 108 310 42 c 0
 242 -25 135 -25 70 41 c 0
 4 107 4 212 70 280 c 0
 138 346 244 346 310 281 c 0
86 56 m 0
 143 -1 236 -1 294 58 c 0
 352 115 352 208 294 266 c 0
 237 322 145 322 86 264 c 0
 29 206 29 114 86 56 c 0
266 107 m 0
 244 57 160 43 122 95 c 0
 89 141 100 199 132 230 c 0
 165 260 216 260 259 238 c 0
 259 192 l 0
 246 192 l 0
 244 205 237 219 230 226 c 0
 210 249 171 241 155 213 c 0
 138 185 137 146 151 120 c 0
 181 63 234 75 256 114 c 0
 266 107 l 0
EndSplineSet
EndChar

StartChar: registered
Encoding: 167 174 166
Width: 380
VWidth: 0
Flags: HMW
LayerCount: 2
Fore
SplineSet
294 266 m 0
 237 322 145 322 86 264 c 0
 29 206 29 114 86 56 c 0
 143 -1 236 -1 294 58 c 0
 352 115 352 208 294 266 c 0
70 41 m 0
 4 107 4 212 70 280 c 0
 138 346 244 346 310 281 c 0
 376 215 376 108 310 42 c 0
 242 -25 135 -25 70 41 c 0
200 245 m 0
 182 245 l 0
 176 245 169 245 169 226 c 0
 169 167 l 0
 188 167 l 0
 236 167 229 245 200 245 c 0
204 254 m 0
 283 254 262 163 214 163 c 0
 250 146 249 85 278 81 c 0
 278 73 l 0
 250 73 l 0
 237 73 231 80 224 95 c 0
 202 141 l 0
 196 154 194 157 183 157 c 0
 169 157 l 0
 169 97 l 0
 169 87 171 81 188 82 c 0
 188 73 l 0
 117 73 l 0
 117 82 l 0
 134 81 136 87 136 97 c 0
 136 230 l 0
 136 240 134 246 117 245 c 0
 117 254 l 0
 204 254 l 0
EndSplineSet
EndChar

StartChar: trademark
Encoding: 168 8482 167
Width: 490
VWidth: 0
Flags: HMW
LayerCount: 2
Fore
SplineSet
185 282 m 0
 185 316 165 316 125 316 c 0
 125 162 l 0
 126 140 123 141 155 141 c 0
 155 128 l 0
 59 128 l 0
 59 141 l 0
 85 141 91 141 92 162 c 0
 92 316 l 0
 48 315 35 317 35 282 c 0
 21 282 l 0
 21 331 l 0
 198 331 l 0
 198 282 l 0
 185 282 l 0
264 160 m 0
 264 143 269 141 288 141 c 0
 288 128 l 0
 224 128 l 0
 224 141 l 0
 238 141 249 141 249 160 c 0
 249 306 l 0
 249 320 248 320 230 320 c 0
 230 331 l 0
 291 331 l 0
 350 186 l 0
 415 331 l 0
 479 331 l 0
 479 320 l 0
 456 320 451 315 451 301 c 0
 451 156 l 0
 451 145 453 141 474 141 c 0
 474 128 l 0
 391 128 l 0
 391 141 l 0
 416 141 418 145 418 156 c 0
 418 302 l 0
 344 128 l 0
 338 128 l 0
 264 306 l 0
 264 160 l 0
EndSplineSet
EndChar

StartChar: ordmasculine
Encoding: 169 186 168
Width: 155
VWidth: 0
Flags: HMW
LayerCount: 2
Fore
SplineSet
34 215 m 0
 10 240 24 287 66 321 c 0
 92 342 125 344 143 323 c 0
 167 297 153 250 111 216 c 0
 85 196 53 193 34 215 c 0
75 312 m 0
 48 280 41 231 50 217 c 0
 59 202 85 204 103 225 c 0
 129 257 136 306 127 320 c 0
 118 336 92 333 75 312 c 0
23 167 m 0
 150 167 l 0
 150 150 l 0
 23 150 l 0
 23 167 l 0
EndSplineSet
EndChar

StartChar: ordfeminine
Encoding: 170 170 169
Width: 138
VWidth: 0
Flags: HMW
LayerCount: 2
Fore
SplineSet
144 167 m 0
 144 150 l 0
 17 150 l 0
 17 167 l 0
 144 167 l 0
128 322 m 0
 132 334 l 0
 154 338 l 0
 126 236 l 0
 117 207 130 211 145 235 c 0
 148 239 153 237 149 231 c 0
 135 207 117 195 105 202 c 0
 96 208 101 226 104 236 c 0
 77 196 36 190 22 215 c 0
 3 251 36 300 64 322 c 0
 95 346 125 341 128 322 c 0
90 231 m 0
 113 258 125 305 122 318 c 0
 119 339 90 333 72 314 c 0
 48 288 36 242 42 228 c 0
 50 210 75 214 90 231 c 0
EndSplineSet
EndChar

StartChar: numbersign
Encoding: 171 35 170
Width: 250
VWidth: 0
Flags: HMW
LayerCount: 2
Fore
SplineSet
175 204 m 0
 106 204 l 0
 81 117 l 0
 150 117 l 0
 175 204 l 0
55 117 m 0
 80 204 l 0
 27 204 l 0
 27 230 l 0
 87 230 l 0
 118 338 l 0
 144 338 l 0
 113 230 l 0
 182 230 l 0
 213 338 l 0
 239 338 l 0
 208 230 l 0
 254 230 l 0
 254 204 l 0
 201 204 l 0
 176 117 l 0
 223 117 l 0
 223 91 l 0
 169 91 l 0
 141 -8 l 0
 115 -8 l 0
 143 91 l 0
 74 91 l 0
 46 -8 l 0
 20 -8 l 0
 48 91 l 0
 -4 91 l 0
 -4 117 l 0
 55 117 l 0
EndSplineSet
EndChar

StartChar: currency
Encoding: 172 164 171
Width: 250
VWidth: 0
Flags: HMW
LayerCount: 2
Fore
SplineSet
43 128 m 0
 27 156 27 200 43 227 c 0
 2 268 l 0
 35 301 l 0
 76 260 l 0
 105 278 146 278 175 260 c 0
 216 301 l 0
 249 268 l 0
 208 227 l 0
 224 200 224 156 208 128 c 0
 249 87 l 0
 216 54 l 0
 175 95 l 0
 146 77 105 77 76 95 c 0
 35 54 l 0
 2 87 l 0
 43 128 l 0
89 141 m 0
 109 121 141 121 161 141 c 0
 181 161 181 194 161 213 c 0
 141 233 109 233 89 213 c 0
 69 193 69 161 89 141 c 0
EndSplineSet
EndChar

StartChar: yen
Encoding: 173 165 172
Width: 250
VWidth: 0
Flags: HMW
LayerCount: 2
Fore
SplineSet
106 50 m 0
 97 16 110 11 134 11 c 0
 141 11 l 0
 141 0 l 0
 7 0 l 0
 7 11 l 0
 19 11 l 0
 49 11 51 22 59 50 c 0
 72 101 l 0
 20 101 l 0
 20 123 l 0
 79 123 l 0
 84 143 l 0
 20 143 l 0
 20 165 l 0
 86 165 l 0
 53 298 l 0
 47 323 43 331 17 331 c 0
 17 342 l 0
 132 342 l 0
 132 331 l 0
 103 331 92 329 98 298 c 0
 128 173 l 0
 228 292 l 0
 253 322 236 331 211 331 c 0
 211 342 l 0
 305 342 l 0
 305 331 l 0
 291 331 281 332 254 298 c 0
 144 165 l 0
 190 165 l 0
 190 143 l 0
 131 143 l 0
 126 123 l 0
 190 123 l 0
 190 101 l 0
 120 101 l 0
 106 50 l 0
EndSplineSet
EndChar

StartChar: cent
Encoding: 174 162 173
Width: 250
VWidth: 0
Flags: HMW
LayerCount: 2
Fore
SplineSet
92 18 m 0
 158 213 l 0
 146 211 131 205 118 192 c 0
 78 151 65 76 75 43 c 0
 78 31 83 23 92 18 c 0
84 -5 m 0
 70 -1 59 2 44 19 c 0
 20 48 21 147 109 206 c 0
 124 216 148 223 161 223 c 0
 181 282 l 0
 197 282 l 0
 177 223 l 0
 188 223 206 220 218 206 c 0
 227 196 229 180 221 168 c 0
 214 160 205 156 192 165 c 0
 174 178 196 196 193 205 c 0
 191 211 180 213 174 213 c 0
 106 12 l 0
 137 10 145 10 183 45 c 0
 189 51 196 45 190 39 c 0
 160 7 137 -8 99 -8 c 0
 76 -73 l 0
 60 -73 l 0
 84 -5 l 0
EndSplineSet
EndChar

StartChar: dollar
Encoding: 175 36 174
Width: 250
VWidth: 0
Flags: HMW
LayerCount: 2
Fore
SplineSet
134 208 m 0
 162 322 l 0
 150 323 136 327 115 311 c 0
 93 293 88 266 98 242 c 0
 102 231 116 221 134 208 c 0
101 8 m 0
 140 9 164 21 174 45 c 0
 182 64 183 89 173 109 c 0
 165 124 151 138 136 149 c 0
 101 8 l 0
31 90 m 0
 31 24 61 17 84 10 c 0
 122 162 l 0
 95 182 72 200 64 223 c 0
 52 257 59 293 80 312 c 0
 108 338 144 341 166 337 c 0
 175 373 l 0
 192 373 l 0
 182 334 l 0
 203 330 222 322 241 305 c 0
 226 247 l 0
 218 248 l 0
 218 296 202 309 178 318 c 0
 148 195 l 0
 173 176 188 165 205 138 c 0
 222 111 219 61 196 31 c 0
 176 6 143 -12 97 -7 c 0
 86 -50 l 0
 69 -50 l 0
 80 -5 l 0
 52 -3 25 15 7 30 c 0
 23 93 l 0
 31 90 l 0
EndSplineSet
EndChar

StartChar: less
Encoding: 187 60 186
Width: 337
VWidth: 0
Flags: HMW
LayerCount: 2
Fore
SplineSet
295 258 m 0
 295 224 l 0
 84 129 l 0
 295 29 l 0
 295 -5 l 0
 43 114 l 0
 43 143 l 0
 295 258 l 0
EndSplineSet
EndChar

StartChar: greater
Encoding: 188 62 187
Width: 337
VWidth: 0
Flags: HMW
LayerCount: 2
Fore
SplineSet
43 258 m 0
 295 143 l 0
 295 114 l 0
 43 -5 l 0
 43 29 l 0
 254 129 l 0
 43 224 l 0
 43 258 l 0
EndSplineSet
EndChar

StartChar: mu
Encoding: 189 181 188
Width: 250
VWidth: 0
Flags: HMW
LayerCount: 2
Fore
SplineSet
195 217 m 0
 231 217 l 0
 188 51 l 0
 173 2 195 9 223 48 c 0
 228 56 236 52 230 42 c 0
 207 2 173 -17 154 -5 c 0
 139 6 147 33 152 51 c 0
 166 110 l 0
 117 -1 56 -23 37 1 c 0
 18 -53 32 -87 14 -102 c 0
 3 -112 -10 -109 -17 -97 c 0
 -31 -70 15 -45 29 11 c 0
 31 18 30 24 37 52 c 0
 70 172 l 0
 76 192 77 204 43 200 c 0
 43 211 l 0
 113 223 l 0
 117 217 116 210 114 202 c 0
 76 58 l 0
 63 9 84 22 98 27 c 0
 109 31 155 84 195 217 c 0
EndSplineSet
EndChar

StartChar: slash
Encoding: 190 47 189
Width: 139
VWidth: 0
Flags: HMW
LayerCount: 2
Fore
SplineSet
103 330 m 0
 126 330 l 0
 23 0 l 0
 1 0 l 0
 103 330 l 0
EndSplineSet
EndChar

StartChar: backslash
Encoding: 191 92 190
Width: 139
VWidth: 0
Flags: HMW
LayerCount: 2
Fore
SplineSet
1 330 m 0
 23 330 l 0
 126 0 l 0
 104 0 l 0
 1 330 l 0
EndSplineSet
EndChar

StartChar: AE
Encoding: 192 198 191
Width: 444
VWidth: 0
Flags: HMW
LayerCount: 2
Fore
SplineSet
189 319 m 0
 179 319 l 0
 179 330 l 0
 445 330 l 0
 431 246 l 0
 418 246 l 0
 418 275 l 0
 418 288 417 312 363 312 c 0
 324 312 l 0
 294 312 292 301 284 273 c 0
 258 180 l 0
 312 180 l 0
 344 180 355 194 364 225 c 0
 377 225 l 0
 345 110 l 0
 335 110 l 0
 335 136 340 162 307 162 c 0
 253 162 l 0
 222 48 l 0
 216 27 218 18 250 18 c 0
 290 18 l 0
 321 18 374 31 396 86 c 0
 409 86 l 0
 375 0 l 0
 134 0 l 0
 134 11 l 0
 164 11 166 22 174 50 c 0
 192 116 l 0
 95 116 l 0
 43 47 l 0
 30 27 33 11 68 11 c 0
 68 0 l 0
 -23 0 l 0
 -23 11 l 0
 -12 11 0 22 16 43 c 0
 204 290 l 0
 213 302 210 319 189 319 c 0
198 134 m 0
 245 306 l 0
 240 306 l 0
 108 134 l 0
 198 134 l 0
EndSplineSet
EndChar

StartChar: OE
Encoding: 193 338 192
Width: 472
VWidth: 0
Flags: HMW
LayerCount: 2
Fore
SplineSet
320 273 m 0
 294 180 l 0
 339 180 l 0
 371 180 382 194 391 225 c 0
 404 225 l 0
 372 110 l 0
 362 110 l 0
 362 136 367 162 334 162 c 0
 289 162 l 0
 258 48 l 0
 252 27 254 18 286 18 c 0
 308 18 l 0
 339 18 392 31 414 86 c 0
 427 86 l 0
 393 0 l 0
 195 0 l 0
 151 0 86 -34 36 40 c 0
 -14 113 29 238 111 298 c 0
 197 361 237 330 282 330 c 0
 472 330 l 0
 455 246 l 0
 445 246 l 0
 445 275 l 0
 445 288 444 312 390 312 c 0
 360 312 l 0
 330 312 328 301 320 273 c 0
216 71 m 0
 272 274 l 0
 276 289 272 301 266 306 c 0
 241 330 187 344 128 277 c 0
 87 229 49 100 69 55 c 0
 108 -35 201 16 216 71 c 0
EndSplineSet
EndChar

StartChar: Eth
Encoding: 194 208 193
Width: 361
VWidth: 0
Flags: HMW
LayerCount: 2
Fore
SplineSet
162 149 m 0
 16 149 l 0
 20 171 l 0
 165 171 l 0
 162 149 l 0
EndSplineSet
Refer: 67 68 N 1 0 0 1 0 0 0
EndChar

StartChar: Thorn
Encoding: 195 222 194
Width: 305
VWidth: 0
Flags: HMW
LayerCount: 2
Fore
SplineSet
202 230 m 0
 180 251 158 246 145 243 c 0
 134 241 129 227 123 204 c 0
 97 110 l 0
 111 110 l 0
 168 110 181 119 198 138 c 0
 214 157 223 210 202 230 c 0
144 280 m 0
 139 260 l 0
 176 260 l 0
 199 260 217 255 237 243 c 0
 275 220 276 163 234 123 c 0
 194 84 129 86 92 92 c 0
 80 50 l 0
 71 16 84 11 108 11 c 0
 108 0 l 0
 -8 0 l 0
 -8 11 l 0
 22 11 24 22 32 50 c 0
 96 280 l 0
 105 314 92 319 68 319 c 0
 68 330 l 0
 184 330 l 0
 184 319 l 0
 154 319 152 308 144 280 c 0
EndSplineSet
EndChar

StartChar: Eng
Encoding: 196 330 195
Width: 350
VWidth: 0
Flags: HMW
LayerCount: 2
Fore
SplineSet
141 243 m 0
 155 268 170 288 185 303 c 0
 226 344 281 350 314 316 c 0
 379 251 326 90 261 25 c 0
 227 -8 183 -20 154 8 c 0
 130 31 133 74 157 97 c 0
 169 110 187 113 199 102 c 0
 209 92 207 74 198 64 c 0
 189 55 175 51 167 43 c 0
 160 36 160 24 168 16 c 0
 184 0 214 6 232 24 c 0
 252 44 264 81 276 126 c 0
 293 190 308 270 277 301 c 0
 253 325 214 312 186 284 c 0
 154 252 128 198 116 155 c 0
 90 65 l 0
 83 40 78 26 87 18 c 0
 93 11 106 10 123 9 c 0
 120 0 l 0
 -15 0 l 0
 -11 9 l 0
 8 10 20 13 28 21 c 0
 37 30 41 44 47 65 c 0
 105 264 l 0
 111 286 116 304 107 313 c 0
 101 319 90 320 73 320 c 0
 77 330 l 0
 166 330 l 0
 141 243 l 0
EndSplineSet
EndChar

StartChar: Hbar
Encoding: 197 294 196
Width: 361
VWidth: 0
Flags: HMW
LayerCount: 2
Fore
SplineSet
51 271 m 0
 355 271 l 0
 355 257 l 0
 51 257 l 0
 51 271 l 0
EndSplineSet
Refer: 71 72 N 1 0 0 1 0 0 0
EndChar

StartChar: Lslash
Encoding: 198 321 197
Width: 278
VWidth: 0
Flags: HMW
LayerCount: 2
Fore
SplineSet
-16 11 m 0
 14 11 16 22 24 50 c 0
 53 148 l 0
 11 124 l 0
 11 153 l 0
 62 181 l 0
 88 280 l 0
 97 314 84 319 60 319 c 0
 60 330 l 0
 176 330 l 0
 176 319 l 0
 146 319 144 308 136 280 c 0
 119 212 l 0
 174 244 l 0
 174 216 l 0
 110 179 l 0
 72 48 l 0
 66 27 68 18 100 18 c 0
 152 18 l 0
 239 18 254 83 257 94 c 0
 268 94 l 0
 242 0 l 0
 -16 0 l 0
 -16 11 l 0
EndSplineSet
EndChar

StartChar: Oslash
Encoding: 199 216 198
Width: 361
VWidth: 0
Flags: HMW
LayerCount: 2
Fore
SplineSet
261 308 m 0
 237 327 186 334 134 275 c 0
 94 228 45 89 84 34 c 0
 261 308 l 0
86 1 m 0
 50 -55 l 0
 27 -55 l 0
 69 10 l 0
 -15 77 16 217 117 295 c 0
 178 343 232 345 274 328 c 0
 300 369 l 0
 323 369 l 0
 290 319 l 0
 374 254 342 113 242 35 c 0
 181 -14 119 -14 86 1 c 0
225 55 m 0
 265 102 313 242 275 294 c 0
 99 21 l 0
 119 1 178 0 225 55 c 0
EndSplineSet
EndChar

StartChar: Tbar
Encoding: 200 358 199
Width: 278
VWidth: 0
Flags: HMW
LayerCount: 2
Fore
SplineSet
76 188 m 0
 208 264 l 0
 208 235 l 0
 77 161 l 0
 76 188 l 0
EndSplineSet
Refer: 83 84 N 1 0 0 1 0 0 0
EndChar

StartChar: cedilla
Encoding: 210 184 209
Width: 166
VWidth: 0
Flags: HMW
LayerCount: 2
Fore
SplineSet
-5 -67 m 0
 36 -92 66 -85 73 -71 c 0
 77 -65 76 -55 70 -50 c 0
 58 -38 43 -41 30 -48 c 0
 47 0 l 0
 61 0 l 0
 53 -25 l 0
 66 -22 75 -21 87 -30 c 0
 113 -47 110 -68 95 -86 c 0
 80 -106 26 -110 -15 -87 c 0
 -5 -67 l 0
EndSplineSet
EndChar

StartChar: Euro
Encoding: 219 8364 215
Width: 250
VWidth: 0
Flags: HMW
LayerCount: 2
Fore
SplineSet
227 64 m 0
 188 19 145 -5 102 -5 c 0
 77 -5 57 1 44 14 c 0
 17 41 17 93 27 140 c 0
 4 140 l 0
 9 159 l 0
 31 159 l 0
 32 163 l 0
 34 168 35 174 38 180 c 0
 15 180 l 0
 21 199 l 0
 45 199 l 0
 59 231 79 262 103 286 c 0
 156 339 231 355 293 316 c 0
 272 243 l 0
 263 243 l 0
 267 269 267 294 252 308 c 0
 227 333 179 322 149 292 c 0
 125 268 106 233 93 199 c 0
 222 199 l 0
 217 180 l 0
 86 180 l 0
 83 173 81 166 79 159 c 0
 211 159 l 0
 206 140 l 0
 74 140 l 0
 64 99 62 48 84 27 c 0
 92 18 103 14 117 14 c 0
 163 14 186 35 221 69 c 0
 227 64 l 0
EndSplineSet
EndChar

StartChar: exclamdown
Encoding: 220 161 216
Width: 194
VWidth: 0
Flags: HMW
LayerCount: 2
Fore
SplineSet
152 190 m 0
 142 180 126 180 116 190 c 0
 107 200 107 216 117 226 c 0
 126 236 143 236 152 226 c 0
 162 216 162 200 152 190 c 0
124 141 m 0
 95 -11 83 -76 68 -94 c 0
 55 -110 34 -110 34 -83 c 0
 34 -53 56 -7 117 141 c 0
 124 141 l 0
EndSplineSet
EndChar

StartChar: dotlessj
Encoding: 221 567 217
Width: 139
VWidth: 0
Flags: HMW
LayerCount: 2
Fore
SplineSet
74 172 m 0
 80 192 81 204 47 200 c 0
 47 211 l 0
 117 223 l 0
 121 217 120 210 118 202 c 0
 60 -8 l 0
 56 -23 38 -73 17 -91 c 0
 -7 -112 -40 -106 -51 -86 c 0
 -55 -78 -58 -66 -50 -57 c 0
 -42 -48 -24 -47 -18 -60 c 0
 -14 -70 -20 -80 -25 -85 c 0
 -6 -105 6 -76 15 -41 c 0
 74 172 l 0
EndSplineSet
EndChar

StartChar: kgreenlandic
Encoding: 222 312 218
Width: 222
VWidth: 0
Flags: HMW
LayerCount: 2
Fore
SplineSet
185 181 m 0
 122 133 l 0
 134 99 149 47 163 32 c 0
 178 15 183 20 201 48 c 0
 206 56 214 52 208 42 c 0
 200 26 195 16 183 2 c 0
 171 -10 147 -15 134 10 c 0
 116 44 105 77 95 110 c 0
 69 91 l 0
 44 0 l 0
 8 0 l 0
 57 176 l 0
 63 196 64 210 30 206 c 0
 30 215 l 0
 100 227 l 0
 104 221 103 214 101 206 c 0
 74 110 l 0
 169 183 l 0
 191 199 165 206 148 206 c 0
 148 215 l 0
 232 215 l 0
 232 206 l 0
 225 206 212 202 185 181 c 0
EndSplineSet
EndChar

StartChar: germandbls
Encoding: 223 223 219
Width: 250
VWidth: 0
Flags: HMW
LayerCount: 2
Fore
SplineSet
204 314 m 0
 195 335 159 332 141 311 c 0
 122 288 106 263 92 204 c 0
 44 6 l 0
 38 -17 22 -54 -3 -83 c 0
 -29 -113 -69 -108 -80 -86 c 0
 -86 -72 -86 -60 -76 -52 c 0
 -68 -46 -55 -47 -48 -57 c 0
 -39 -67 -59 -83 -46 -91 c 0
 -40 -95 -28 -92 -19 -77 c 0
 -12 -65 0 -30 3 -13 c 0
 58 214 l 0
 69 259 87 293 119 318 c 0
 156 346 210 343 233 318 c 0
 251 298 254 237 216 217 c 0
 167 190 l 0
 180 190 195 182 204 173 c 0
 251 124 213 33 168 4 c 0
 136 -16 98 -10 86 8 c 0
 78 22 82 40 90 44 c 0
 98 48 111 53 119 40 c 0
 124 33 122 23 117 15 c 0
 111 4 127 -2 139 5 c 0
 177 25 197 143 175 169 c 0
 167 180 152 184 143 184 c 0
 134 184 134 197 144 197 c 0
 156 197 174 203 187 218 c 0
 208 240 209 301 204 314 c 0
EndSplineSet
EndChar

StartChar: ae
Encoding: 224 230 220
Width: 333
VWidth: 0
Flags: HMW
LayerCount: 2
Fore
SplineSet
166 8 m 0
 156 26 154 35 154 69 c 0
 99 -25 41 -20 18 15 c 0
 -4 51 33 141 84 187 c 0
 150 246 188 222 190 194 c 0
 197 217 l 0
 232 217 l 0
 225 196 l 0
 253 231 301 227 313 211 c 0
 324 196 320 171 301 150 c 0
 280 125 245 112 194 101 c 0
 194 101 l 0
 184 63 191 44 198 27 c 0
 205 10 250 6 290 53 c 0
 295 46 l 0
 256 -9 183 -23 166 8 c 0
196 113 m 0
 236 119 267 149 275 160 c 0
 283 173 286 191 282 200 c 0
 276 210 260 208 251 203 c 0
 233 191 212 171 196 113 c 0
114 34 m 0
 143 60 195 177 175 200 c 0
 165 212 135 217 104 178 c 0
 73 139 48 62 56 34 c 0
 61 16 83 6 114 34 c 0
EndSplineSet
EndChar

StartChar: oe
Encoding: 225 339 221
Width: 333
VWidth: 0
Flags: HMW
LayerCount: 2
Fore
SplineSet
153 29 m 0
 114 -13 62 -22 31 14 c 0
 -6 56 20 139 66 185 c 0
 130 250 193 222 202 183 c 0
 247 229 292 234 316 207 c 0
 322 200 330 175 304 146 c 0
 293 134 278 119 193 99 c 0
 187 74 184 50 191 30 c 0
 202 0 260 8 298 58 c 0
 303 51 l 0
 262 -13 162 -32 153 29 c 0
57 30 m 0
 66 2 96 -4 123 20 c 0
 144 38 177 151 170 190 c 0
 166 219 123 219 91 174 c 0
 55 121 47 63 57 30 c 0
195 111 m 0
 261 128 272 140 281 154 c 0
 293 173 293 191 288 198 c 0
 279 212 256 208 245 199 c 0
 226 185 205 160 195 111 c 0
EndSplineSet
EndChar

StartChar: eth
Encoding: 226 240 222
Width: 250
VWidth: 0
Flags: HMW
LayerCount: 2
Fore
SplineSet
101 183 m 0
 57 135 47 43 58 23 c 0
 76 -9 119 3 142 27 c 0
 183 67 205 154 189 193 c 0
 179 215 139 223 101 183 c 0
95 345 m 0
 119 333 146 314 163 297 c 0
 223 319 l 0
 244 287 l 0
 225 282 l 0
 217 291 l 0
 180 277 l 0
 264 176 241 91 168 23 c 0
 129 -12 46 -29 19 38 c 0
 1 82 30 150 83 194 c 0
 123 227 154 217 162 227 c 0
 170 239 166 245 148 266 c 0
 85 243 l 0
 64 275 l 0
 83 280 l 0
 91 271 l 0
 131 286 l 0
 117 303 94 318 74 330 c 0
 95 345 l 0
EndSplineSet
EndChar

StartChar: thorn
Encoding: 227 254 223
Width: 250
VWidth: 0
Flags: HMW
LayerCount: 2
Fore
SplineSet
52 19 m 0
 64 -9 110 7 131 27 c 0
 172 66 199 156 179 185 c 0
 159 212 118 202 86 146 c 0
 52 19 l 0
30 -63 m 0
 26 -76 28 -91 49 -91 c 0
 61 -91 l 0
 61 -103 l 0
 -38 -103 l 0
 -38 -91 l 0
 -15 -91 -13 -86 -7 -65 c 0
 91 291 l 0
 97 311 98 323 64 319 c 0
 64 330 l 0
 134 342 l 0
 138 336 137 329 135 321 c 0
 94 174 l 0
 135 230 198 235 217 203 c 0
 257 138 191 43 147 14 c 0
 114 -8 66 -17 48 5 c 0
 30 -63 l 0
EndSplineSet
EndChar

StartChar: eng
Encoding: 228 331 224
Width: 250
VWidth: 0
Flags: HMW
LayerCount: 2
Fore
SplineSet
219 155 m 0
 172 2 l 0
 163 -31 148 -59 128 -79 c 0
 104 -103 57 -118 38 -99 c 0
 30 -91 29 -79 36 -71 c 0
 44 -64 56 -62 64 -70 c 0
 75 -80 55 -91 59 -94 c 0
 65 -100 90 -92 100 -82 c 0
 110 -71 118 -55 124 -33 c 0
 182 155 l 0
 186 170 190 186 184 192 c 0
 176 200 156 188 142 173 c 0
 108 140 68 74 58 40 c 0
 46 0 l 0
 9 0 l 0
 54 153 l 0
 60 175 65 189 58 196 c 0
 53 201 43 199 27 197 c 0
 26 206 l 0
 103 221 l 0
 110 221 l 0
 78 110 l 0
 101 144 125 175 145 195 c 0
 169 219 200 233 218 215 c 0
 231 202 226 177 219 155 c 0
EndSplineSet
EndChar

StartChar: hbar
Encoding: 229 295 225
Width: 250
VWidth: 0
Flags: HMW
LayerCount: 2
Fore
SplineSet
53 271 m 0
 203 271 l 0
 203 257 l 0
 53 257 l 0
 53 271 l 0
EndSplineSet
Refer: 103 104 N 1 0 0 1 0 0 0
EndChar

StartChar: lslash
Encoding: 230 322 226
Width: 139
VWidth: 0
Flags: HMW
LayerCount: 2
Fore
SplineSet
93 291 m 0
 99 311 100 323 66 319 c 0
 66 330 l 0
 136 342 l 0
 140 336 139 329 137 321 c 0
 109 213 l 0
 140 232 l 0
 140 204 l 0
 101 182 l 0
 64 51 l 0
 49 2 71 9 99 48 c 0
 99 48 l 0
 104 56 112 52 106 42 c 0
 83 2 49 -17 30 -5 c 0
 15 6 23 33 28 51 c 0
 58 158 l 0
 10 129 l 0
 10 158 l 0
 68 193 l 0
 93 291 l 0
EndSplineSet
EndChar

StartChar: oslash
Encoding: 231 248 227
Width: 250
VWidth: 0
Flags: HMW
LayerCount: 2
Fore
SplineSet
148 33 m 0
 195 89 209 194 176 207 c 0
 80 5 l 0
 101 -1 131 12 148 33 c 0
160 211 m 0
 144 211 122 208 100 182 c 0
 56 129 40 30 67 12 c 0
 160 211 l 0
60 -3 m 0
 48 2 41 8 33 16 c 0
 -6 58 17 140 86 196 c 0
 111 216 135 223 166 223 c 0
 193 280 l 0
 210 280 l 0
 182 220 l 0
 191 217 204 211 215 199 c 0
 254 157 231 75 162 19 c 0
 138 0 107 -12 75 -7 c 0
 47 -66 l 0
 30 -66 l 0
 60 -3 l 0
EndSplineSet
EndChar

StartChar: tbar
Encoding: 232 359 228
Width: 139
VWidth: 0
Flags: HMW
LayerCount: 2
Fore
SplineSet
6 104 m 0
 115 158 l 0
 113 132 l 0
 6 77 l 0
 6 104 l 0
EndSplineSet
Refer: 115 116 N 1 0 0 1 0 0 0
EndChar

StartChar: ogonek
Encoding: 242 731 238
Width: 166
VWidth: 0
Flags: HMW
LayerCount: 2
Fore
SplineSet
77 -39 m 0
 83 -34 90 -42 85 -48 c 0
 55 -84 14 -85 -7 -65 c 0
 -34 -33 -26 -11 20 21 c 0
 35 21 l 0
 5 -6 -3 -26 13 -41 c 0
 28 -55 52 -60 77 -39 c 0
EndSplineSet
EndChar

StartChar: florin
Encoding: 251 402 244
Width: 250
VWidth: 0
Flags: HMW
LayerCount: 2
Fore
SplineSet
153 201 m 0
 216 201 l 0
 210 184 l 0
 151 184 l 0
 140 114 142 81 128 20 c 0
 118 -15 107 -60 79 -80 c 0
 55 -100 19 -93 8 -78 c 0
 2 -70 0 -53 7 -43 c 0
 16 -30 35 -30 43 -42 c 0
 47 -48 47 -60 38 -70 c 0
 38 -75 36 -78 41 -79 c 0
 66 -82 83 -55 86 -15 c 0
 93 50 94 113 107 184 c 0
 50 184 l 0
 56 201 l 0
 110 201 l 0
 118 246 124 285 151 312 c 0
 177 341 226 340 240 315 c 0
 246 305 245 295 237 284 c 0
 230 275 218 274 206 282 c 0
 197 291 200 302 208 313 c 0
 208 319 191 325 176 310 c 0
 164 296 156 251 153 201 c 0
EndSplineSet
EndChar

StartChar: questiondown
Encoding: 252 191 245
Width: 250
VWidth: 0
Flags: HMW
LayerCount: 2
Fore
SplineSet
191 190 m 0
 181 180 165 180 155 190 c 0
 146 200 146 216 156 226 c 0
 165 236 182 236 191 226 c 0
 201 216 201 200 191 190 c 0
68 -71 m 0
 83 -99 129 -98 141 -66 c 0
 126 -52 126 -36 134 -27 c 0
 140 -20 153 -16 162 -28 c 0
 177 -48 169 -74 142 -93 c 0
 120 -109 69 -112 46 -85 c 0
 29 -65 26 -29 39 -1 c 0
 50 20 73 39 94 53 c 0
 143 87 148 110 157 141 c 0
 165 141 l 0
 148 76 145 69 85 12 c 0
 65 -8 56 -49 68 -71 c 0
EndSplineSet
EndChar

StartChar: dotlessi
Encoding: 253 305 246
Width: 139
VWidth: 0
Flags: HMW
LayerCount: 2
Fore
SplineSet
105 223 m 0
 109 217 108 210 106 202 c 0
 65 51 l 0
 50 2 74 9 102 48 c 0
 107 56 115 52 109 42 c 0
 86 2 50 -17 31 -5 c 0
 16 6 24 33 29 51 c 0
 62 172 l 0
 68 192 69 204 35 200 c 0
 35 211 l 0
 105 223 l 0
EndSplineSet
EndChar

StartChar: fi
Encoding: 254 64257 247
Width: 250
VWidth: 0
Flags: HMW
LayerCount: 2
Fore
SplineSet
188 51 m 0
 173 2 197 9 225 48 c 0
 230 56 238 52 232 42 c 0
 209 2 173 -17 154 -5 c 0
 139 6 147 33 152 51 c 0
 192 196 l 0
 103 196 l 0
 57 6 l 0
 51 -17 38 -54 13 -83 c 0
 -13 -113 -53 -108 -64 -86 c 0
 -70 -72 -70 -60 -60 -52 c 0
 -52 -46 -39 -47 -32 -57 c 0
 -23 -67 -43 -83 -30 -91 c 0
 -24 -95 -12 -92 -3 -77 c 0
 4 -65 12 -28 16 -13 c 0
 66 196 l 0
 28 196 l 0
 28 214 l 0
 70 214 l 0
 85 261 99 297 128 322 c 0
 154 344 188 340 202 327 c 0
 214 317 215 300 211 293 c 0
 199 275 181 276 172 288 c 0
 163 301 182 314 171 322 c 0
 166 325 156 326 144 316 c 0
 131 303 122 274 114 240 c 0
 107 214 l 0
 177 214 l 0
 192 214 210 217 229 222 c 0
 233 219 232 210 230 203 c 0
 188 51 l 0
EndSplineSet
EndChar

StartChar: fl
Encoding: 255 64258 248
Width: 250
VWidth: 0
Flags: HMW
LayerCount: 2
Fore
SplineSet
206 323 m 0
 203 329 163 332 146 316 c 0
 126 298 123 275 113 241 c 0
 106 214 l 0
 189 214 l 0
 209 287 l 0
 193 299 210 316 206 323 c 0
144 51 m 0
 184 196 l 0
 102 196 l 0
 56 6 l 0
 50 -17 37 -54 12 -83 c 0
 -14 -113 -54 -108 -65 -86 c 0
 -71 -72 -71 -60 -61 -52 c 0
 -53 -46 -40 -47 -33 -57 c 0
 -24 -67 -44 -83 -31 -91 c 0
 -25 -95 -13 -92 -4 -77 c 0
 3 -65 11 -28 15 -13 c 0
 65 196 l 0
 27 196 l 0
 27 214 l 0
 69 214 l 0
 84 262 94 292 130 322 c 0
 171 355 222 323 253 343 c 0
 256 339 258 333 254 322 c 0
 180 51 l 0
 165 2 187 9 215 48 c 0
 220 56 228 52 222 42 c 0
 199 2 165 -17 146 -5 c 0
 131 6 139 33 144 51 c 0
EndSplineSet
EndChar

